<?xml version="1.0" standalone="no"?>
<!DOCTYPE svg PUBLIC "-//W3C//DTD SVG 20010904//EN"
 "http://www.w3.org/TR/2001/REC-SVG-20010904/DTD/svg10.dtd">
<svg version="1.0" xmlns="http://www.w3.org/2000/svg"
 width="2172.000000pt" height="724.000000pt" viewBox="0 0 2172.000000 724.000000"
 preserveAspectRatio="xMidYMid meet">

<g transform="translate(0.000000,724.000000) scale(0.100000,-0.100000)"
fill="#000000" stroke="none">
<path d="M2640 5628 c-500 -389 -854 -629 -1240 -839 -158 -86 -484 -239 -618
-290 l-23 -9 28 -23 c15 -13 111 -84 213 -157 102 -73 223 -161 270 -195 47
-33 119 -85 160 -115 128 -92 478 -345 625 -452 77 -56 253 -182 390 -281 260
-187 476 -346 703 -518 l133 -100 -61 -45 c-33 -24 -63 -44 -66 -44 -3 0 -123
87 -267 192 -383 281 -613 445 -687 488 -320 186 -714 184 -1123 -5 -80 -37
-234 -123 -279 -155 l-37 -27 267 -194 c147 -106 332 -240 412 -298 80 -57
202 -146 272 -198 71 -51 188 -137 260 -190 73 -53 165 -120 203 -148 127 -94
439 -320 522 -378 l82 -58 94 83 c493 436 850 699 1278 944 160 91 505 264
527 264 19 0 14 13 -15 34 -173 127 -1176 844 -1353 969 -377 264 -1134 815
-1138 827 -2 5 24 27 58 50 l61 41 92 -67 c51 -37 133 -98 182 -134 172 -128
581 -416 663 -469 108 -68 186 -102 302 -132 81 -20 117 -24 245 -23 157 1
220 11 385 60 146 44 547 253 523 274 -4 4 -80 58 -168 120 -140 99 -281 201
-920 665 -77 56 -187 135 -245 176 -58 42 -172 124 -255 184 -82 60 -181 131
-220 158 -38 28 -84 61 -101 73 l-30 23 -104 -81z"/>
<path d="M6675 4884 c-320 -34 -545 -95 -718 -196 -366 -212 -447 -704 -162
-982 168 -164 359 -224 1035 -327 433 -65 516 -92 560 -184 52 -107 -34 -213
-197 -245 -79 -16 -270 -8 -338 14 -121 38 -205 115 -229 210 l-12 46 -498 1
c-274 0 -500 -2 -503 -4 -9 -9 19 -172 43 -247 27 -87 99 -197 166 -254 165
-142 424 -230 801 -273 180 -20 621 -23 762 -5 362 47 609 146 767 309 74 76
113 140 145 238 22 68 26 98 26 200 1 105 -3 130 -27 200 -35 101 -67 156
-130 224 -168 178 -359 242 -1171 391 -342 63 -406 85 -440 150 -64 123 85
230 320 230 170 0 277 -34 364 -115 30 -28 57 -65 67 -91 l17 -44 468 0 469 0
0 33 c0 50 -35 178 -64 235 -96 189 -329 343 -631 417 -230 56 -324 67 -595
70 -140 2 -273 1 -295 -1z"/>
<path d="M8587 4803 c-12 -11 -8 -1599 3 -1693 42 -335 195 -515 520 -609 217
-63 467 -86 857 -78 294 6 406 18 587 63 320 80 500 240 560 499 32 138 36
253 36 1038 l0 787 -391 -2 -391 -3 -2 -765 c-1 -765 -1 -765 -23 -831 -38
-109 -120 -184 -250 -225 -27 -8 -105 -18 -178 -21 -268 -12 -437 59 -507 212
l-23 50 -5 790 -5 790 -391 3 c-215 1 -393 -1 -397 -5z"/>
<path d="M11440 4538 l0 -273 630 2 c346 1 630 -2 630 -7 0 -4 -286 -295 -635
-646 l-634 -639 2 -229 2 -228 325 0 c179 0 751 1 1273 1 l947 1 0 265 0 265
-649 0 c-358 0 -652 4 -655 8 -4 7 1169 1166 1267 1251 l37 33 0 234 0 234
-1270 0 -1270 0 0 -272z"/>
<path d="M14262 3928 c3 -871 4 -884 25 -960 59 -209 172 -338 371 -423 197
-85 398 -115 817 -122 420 -7 617 14 855 93 259 86 396 226 462 476 22 82 22
92 25 951 l4 867 -393 -2 -393 -3 -5 -790 c-4 -647 -8 -796 -19 -825 -61 -151
-184 -217 -426 -227 -262 -11 -437 59 -503 201 -40 83 -42 135 -42 903 l0 743
-390 0 -391 0 3 -882z"/>
<path d="M17120 3665 l0 -1145 394 0 394 0 7 98 c5 53 5 193 2 311 -7 248 0
418 18 424 6 3 202 -185 436 -417 l425 -421 545 3 545 2 -510 508 c-281 279
-555 547 -608 596 -54 49 -98 92 -98 96 0 4 109 102 243 217 771 669 986 857
986 866 1 4 -242 7 -538 7 l-539 0 -69 -62 c-38 -35 -174 -157 -303 -273 -129
-115 -295 -265 -368 -333 -110 -103 -135 -122 -147 -112 -13 11 -15 71 -15
396 l0 384 -400 0 -400 0 0 -1145z"/>
<path d="M20117 4803 c-4 -3 -7 -519 -7 -1145 l0 -1138 63 0 c34 0 177 0 317
-1 140 0 290 0 333 0 l77 1 0 1145 0 1145 -388 0 c-214 0 -392 -3 -395 -7z"/>
</g>
</svg>
