<?xml version="1.0" standalone="no"?>
<!DOCTYPE svg PUBLIC "-//W3C//DTD SVG 20010904//EN"
 "http://www.w3.org/TR/2001/REC-SVG-20010904/DTD/svg10.dtd">
<svg version="1.0" xmlns="http://www.w3.org/2000/svg"
 width="2172.000000pt" height="724.000000pt" viewBox="0 0 2172.000000 724.000000"
 preserveAspectRatio="xMidYMid meet">

<g transform="translate(0.000000,724.000000) scale(0.100000,-0.100000)"
fill="#000000" stroke="none">
<path d="M2553 5873 c-4 -10 -44 -115 -91 -233 -46 -118 -134 -348 -197 -510
-62 -162 -181 -468 -265 -680 -360 -915 -598 -1521 -685 -1745 -32 -82 -88
-226 -126 -320 l-67 -170 567 -3 c311 -1 571 0 577 2 7 3 30 51 52 108 23 57
102 254 177 438 75 184 185 460 246 612 l111 277 37 6 c56 9 1251 1 1251 -9 0
-11 -199 -527 -391 -1014 -87 -221 -159 -407 -159 -412 0 -7 199 -9 576 -8
l576 3 105 260 c57 143 140 348 183 455 43 107 119 296 168 420 50 124 149
374 222 555 72 182 175 438 227 570 52 132 150 380 218 550 68 171 167 420
219 555 53 135 101 255 106 268 6 13 10 27 10 32 0 6 -224 10 -594 10 l-593 0
-46 -122 c-25 -68 -101 -267 -167 -443 -67 -176 -153 -405 -192 -510 -39 -104
-75 -196 -81 -202 -12 -16 -1277 -19 -1277 -4 0 6 69 184 154 398 300 757 346
873 346 878 0 3 -268 5 -595 5 -558 0 -596 -1 -602 -17z"/>
<path d="M7013 5873 c-3 -10 -27 -72 -54 -138 -26 -66 -108 -275 -182 -465
-75 -190 -225 -570 -335 -845 -109 -275 -268 -678 -352 -895 -116 -298 -476
-1208 -517 -1308 -4 -10 117 -12 598 -10 l604 3 23 60 c13 33 29 74 37 90 7
17 51 125 98 240 47 116 109 266 137 335 60 147 374 934 451 1130 29 74 96
246 150 382 54 136 124 314 155 395 104 272 242 626 318 818 42 105 76 198 76
208 0 16 -35 17 -600 17 -563 0 -601 -1 -607 -17z"/>
<path d="M13307 5883 c-6 -10 -94 -233 -187 -473 -163 -420 -192 -494 -265
-685 -130 -341 -128 -337 -150 -345 -11 -4 -121 -17 -245 -29 -124 -12 -261
-26 -305 -31 -44 -4 -82 -6 -84 -5 -1 2 20 57 48 122 75 174 92 250 98 428 6
179 -10 285 -64 415 -45 109 -91 186 -155 256 -134 146 -320 245 -553 294
-209 44 -231 45 -1334 45 l-1054 0 -47 -125 c-26 -69 -132 -345 -235 -615
-191 -502 -290 -763 -515 -1360 -71 -187 -161 -425 -200 -530 -40 -104 -103
-271 -140 -369 l-68 -180 -128 -84 c-763 -496 -1684 -1229 -2251 -1788 -153
-151 -167 -170 -73 -93 45 37 398 288 630 449 140 97 545 355 750 477 753 449
1761 887 2825 1228 683 219 1710 429 2510 514 55 6 141 15 190 21 329 35 548
44 1155 44 501 1 657 -2 840 -17 455 -36 754 -77 1175 -162 121 -25 227 -45
235 -45 10 0 24 25 39 68 13 37 77 207 141 377 198 524 243 646 237 651 -3 3
-108 10 -234 14 -125 5 -308 14 -405 19 -445 27 -547 31 -918 41 -217 5 -454
13 -527 16 l-131 6 20 46 c11 26 53 128 93 227 40 99 83 204 95 233 l23 52
1162 0 1162 0 106 248 c58 136 143 333 187 437 45 105 84 196 87 203 4 9 -353
12 -1765 12 -974 0 -1773 -3 -1775 -7z m-2524 -877 c92 -18 124 -34 167 -82
77 -88 97 -210 60 -358 -29 -116 -94 -272 -156 -371 -117 -188 -104 -174 -164
-191 -235 -67 -825 -277 -1174 -418 -76 -31 -140 -55 -142 -53 -2 2 18 59 46
128 46 116 132 339 370 959 54 140 111 288 126 328 l29 72 382 0 c290 0 399
-3 456 -14z"/>
<path d="M17588 5882 c-23 -3 -31 -14 -58 -80 -57 -137 -221 -523 -281 -663
-32 -75 -59 -139 -59 -143 0 -3 456 -7 1013 -8 l1012 -3 47 -23 c86 -43 118
-134 94 -270 -14 -75 -29 -120 -119 -352 -84 -217 -287 -751 -287 -755 0 -4
-137 -375 -165 -447 -7 -17 -39 -18 -488 -18 -532 0 -559 3 -632 63 -104 85
-99 253 13 427 179 278 607 580 1037 730 l140 49 -486 0 c-514 1 -629 -5 -825
-44 -614 -123 -1042 -568 -1174 -1221 -29 -139 -37 -358 -17 -451 49 -229 187
-366 424 -422 173 -40 218 -41 1558 -41 l1300 0 19 53 c10 28 47 131 83 227
139 378 172 468 201 550 17 47 71 198 120 335 307 852 425 1199 452 1330 51
244 59 372 36 515 -53 322 -244 529 -568 615 -181 48 -200 48 -1313 50 -577 1
-1062 -1 -1077 -3z"/>
<path d="M12210 2910 c-708 -49 -1242 -133 -2065 -325 -553 -130 -1111 -309
-1723 -554 -190 -76 -255 -104 -587 -251 -146 -64 -335 -159 -320 -159 6 -1
105 26 220 59 532 153 1238 314 1665 380 697 108 1310 160 1910 160 716 0
1310 -52 2007 -175 617 -110 1147 -268 1723 -515 103 -45 148 -60 159 -53 8 5
21 29 29 54 13 39 291 811 306 849 7 17 18 12 -229 106 -494 188 -1059 323
-1590 378 -384 40 -527 48 -950 51 -236 2 -486 -1 -555 -5z"/>
</g>
</svg>
