<svg version="1.1" id="Layer_1" xmlns="http://www.w3.org/2000/svg" xmlns:xlink="http://www.w3.org/1999/xlink" x="0px" y="0px"
	 width="100%" viewBox="0 0 1024 336" enable-background="new 0 0 1024 336" xml:space="preserve">
<path fill="#000000" opacity="1.000000" stroke="none" 
	d="
M174.940613,100.860352 
	C176.597855,100.854774 177.771912,100.940514 178.928635,100.835381 
	C182.991135,100.466148 184.401505,102.172768 184.456238,106.319305 
	C184.640762,120.300140 185.189667,134.276611 185.661514,148.252655 
	C185.721405,150.026245 186.150986,151.787369 186.425583,153.665695 
	C189.073349,153.175522 189.687851,151.064346 190.725540,149.494980 
	C200.462723,134.768784 210.195572,120.039009 219.792557,105.221474 
	C221.690842,102.290588 223.821136,100.790642 227.469498,100.821091 
	C244.959991,100.967087 262.452332,100.889381 279.944031,100.903061 
	C281.573730,100.904343 283.276764,100.689362 285.185425,102.401512 
	C282.682892,109.741135 280.144135,117.245995 277.565002,124.736938 
	C274.043915,134.963837 270.497345,145.181946 266.949066,155.399460 
	C266.243835,157.430283 265.709137,159.492172 263.242310,160.343643 
	C249.498398,165.087616 238.071198,173.828949 226.231323,181.869202 
	C224.239944,183.221512 222.521698,185.240738 218.796570,185.441635 
	C221.801392,175.629166 224.680542,166.227081 227.559692,156.824997 
	C227.237549,156.632126 226.915421,156.439270 226.593277,156.246414 
	C221.757141,162.580109 216.892303,168.892181 212.095123,175.255249 
	C208.987793,179.376892 205.690125,183.396240 203.006638,187.784821 
	C200.237534,192.313400 196.508545,192.979263 191.897705,191.892624 
	C189.307388,191.282181 186.685898,190.785492 184.126114,190.067612 
	C176.214127,187.848770 168.367844,187.785995 160.547379,190.480515 
	C159.004120,191.012253 157.462631,191.753723 155.489349,191.231613 
	C152.802658,179.600952 154.313354,167.603424 153.241684,155.842667 
	C152.823257,155.795135 152.404831,155.747620 151.986420,155.700104 
	C145.665756,171.773193 139.217789,187.797729 133.061325,203.933472 
	C127.268715,219.115570 111.035614,227.721634 95.109909,223.734268 
	C82.440857,220.562286 82.420845,220.245819 87.223343,208.263062 
	C100.849617,174.264008 114.377205,140.224930 127.765923,106.131828 
	C129.286819,102.259018 131.318771,100.781532 135.469574,100.845886 
	C148.459854,101.047272 161.455750,100.885315 174.940613,100.860352 
z"/>
<path fill="#000000" opacity="1.000000" stroke="none" 
	d="
M473.082733,226.049286 
	C472.291931,228.143982 471.181091,229.206299 469.228973,229.192459 
	C460.073669,229.127594 450.918182,229.088791 441.763184,228.998535 
	C441.329315,228.994247 440.899384,228.588120 440.508698,228.389954 
	C439.645538,226.517334 440.838501,225.109055 441.395935,223.607346 
	C443.597168,217.677216 446.044617,211.829956 448.019501,205.826553 
	C450.386688,198.630646 447.518066,193.191803 440.502930,192.525253 
	C433.237244,191.834930 425.868439,192.220398 418.544556,192.157425 
	C416.000580,192.135544 415.276886,194.128922 414.525757,195.987167 
	C410.658142,205.555283 406.728851,215.100281 403.023743,224.731277 
	C401.775452,227.976013 399.976105,229.406540 396.368469,229.318726 
	C387.438751,229.101364 378.500183,229.247345 369.904022,229.247345 
	C368.688477,226.460342 369.959503,224.890961 370.604980,223.255524 
	C382.950714,191.976517 395.370331,160.726547 407.640594,129.418030 
	C408.987762,125.980591 410.806946,124.579414 414.604828,124.618469 
	C432.259918,124.800003 449.918091,124.655113 467.574738,124.726097 
	C472.752594,124.746918 477.850067,125.625290 482.776154,127.253227 
	C494.630463,131.170807 500.354156,141.190979 497.852356,153.447739 
	C495.404327,165.441238 488.418854,173.770279 477.426086,178.892502 
	C475.785431,179.656982 474.140381,180.412170 471.871521,181.460953 
	C482.692657,189.114639 481.389709,199.156662 478.357391,209.486679 
	C476.764526,214.912994 474.936859,220.270355 473.082733,226.049286 
M429.329010,167.742508 
	C436.138885,167.735352 442.950134,167.810165 449.758209,167.695038 
	C455.177612,167.603378 459.806091,165.615158 463.181885,161.220108 
	C467.457520,155.653656 465.350586,150.268158 458.408875,149.418152 
	C454.965393,148.996506 451.444489,149.154083 447.958313,149.143265 
	C432.728088,149.095993 432.723907,149.106964 427.572876,163.423203 
	C427.239502,164.349762 426.882843,165.316162 426.826263,166.280991 
	C426.766205,167.305756 427.701599,167.538620 429.329010,167.742508 
z"/>
<path fill="#000000" opacity="1.000000" stroke="none" 
	d="
M835.597229,212.494812 
	C831.266174,229.211182 831.266052,229.257919 814.595032,229.225143 
	C809.839111,229.215790 805.023071,229.728577 799.837769,228.662796 
	C800.368103,223.345291 802.832214,219.117874 804.253296,214.595078 
	C805.495361,210.641602 807.601013,206.947845 807.786804,202.678391 
	C808.060364,196.389984 805.176880,192.727463 798.901917,192.359268 
	C792.424011,191.979141 785.910767,192.239319 779.415405,192.101593 
	C776.353821,192.036682 775.032898,193.759323 774.033936,196.327866 
	C770.412903,205.638229 766.541321,214.853195 763.047791,224.210007 
	C761.694763,227.833557 759.831970,229.480301 755.757324,229.336197 
	C747.316040,229.037689 738.856873,229.246185 730.895630,229.246185 
	C729.338440,226.746384 730.407104,225.225113 730.981934,223.742508 
	C743.202942,192.224075 755.505920,160.737350 767.650513,129.189575 
	C768.922546,125.885193 770.619873,124.598320 774.223206,124.633415 
	C791.550598,124.802155 808.880798,124.654556 826.209473,124.733521 
	C832.083801,124.760284 837.809326,125.941689 843.197083,128.309906 
	C852.614502,132.449295 857.060486,141.212402 855.657776,151.454910 
	C853.791443,165.081955 846.563293,174.373550 833.972229,179.649918 
	C833.051575,180.035721 832.145264,180.461792 831.259216,180.920959 
	C830.996887,181.056900 830.826599,181.370407 830.458252,181.772766 
	C841.784363,190.195679 839.013489,201.108093 835.597229,212.494812 
M808.450867,149.152344 
	C792.199951,149.081543 792.199890,149.081528 787.263306,162.900513 
	C787.207397,163.057053 787.166870,163.220535 787.096985,163.370422 
	C785.749878,166.260529 786.460876,167.802780 789.856995,167.769135 
	C796.670776,167.701630 803.494873,167.904266 810.296143,167.591507 
	C815.134827,167.368988 819.240906,165.191177 822.181335,161.169540 
	C826.056396,155.869492 823.852905,150.303329 817.392212,149.404541 
	C814.776123,149.040619 812.084045,149.222183 808.450867,149.152344 
z"/>
<path fill="#000000" opacity="1.000000" stroke="none" 
	d="
M365.644348,163.818817 
	C367.729919,163.944336 369.452637,163.576065 371.433105,165.074707 
	C369.420532,172.163742 366.629486,179.185715 363.334290,185.992783 
	C362.400391,187.921982 360.062195,187.277924 358.290863,187.283096 
	C344.625153,187.323029 330.956451,187.464828 317.295105,187.218552 
	C312.906586,187.139450 310.478546,188.628174 309.216309,192.783829 
	C308.116425,196.404922 306.567474,199.889618 304.689484,204.819275 
	C323.921509,204.819275 342.188232,204.819275 361.912506,204.819275 
	C358.504883,213.539505 355.747925,220.751923 352.839630,227.902771 
	C352.268005,229.308258 350.639130,229.235565 349.300049,229.235855 
	C321.635376,229.242126 293.970673,229.240723 266.306000,229.224731 
	C265.317871,229.224152 264.290833,229.170547 263.348785,227.991943 
	C263.237610,224.636108 265.139038,221.573944 266.415802,218.434967 
	C278.465149,188.810425 290.045288,159.002991 301.345062,129.087173 
	C302.515747,125.987747 304.016479,124.612129 307.458923,124.627541 
	C333.456787,124.743896 359.455444,124.686691 385.453827,124.708885 
	C386.740082,124.709976 388.141937,124.406372 389.902649,126.170418 
	C387.173584,133.012634 384.390350,140.255554 381.373383,147.399750 
	C380.416870,149.664795 377.989075,149.160385 376.038574,149.164703 
	C362.206238,149.195358 348.373779,149.178802 334.541382,149.189407 
	C326.352142,149.195694 326.323334,149.194717 323.479279,156.693619 
	C322.728333,158.673599 321.585449,160.595734 322.079041,163.818268 
	C336.389221,163.818268 350.790344,163.818268 365.644348,163.818817 
z"/>
<path fill="#000000" opacity="1.000000" stroke="none" 
	d="
M664.607788,158.489380 
	C661.166992,168.281845 657.824585,177.692490 654.591492,187.140549 
	C649.898560,200.854279 657.078979,209.113693 671.631653,207.347519 
	C682.847534,205.986359 689.854614,199.855698 693.605042,189.613571 
	C700.301392,171.326218 706.773254,152.956451 713.506958,134.683029 
	C718.024902,122.422607 715.573853,124.961578 727.675232,124.724442 
	C734.633972,124.588089 741.597656,124.699722 748.108887,124.699722 
	C749.779297,127.019073 748.665100,128.536423 748.115295,130.012985 
	C740.100586,151.539474 732.070557,173.060364 723.982117,194.559250 
	C721.267578,201.774460 717.475342,208.353119 712.561279,214.366806 
	C702.640625,226.507477 688.971802,229.927307 674.375183,231.107559 
	C663.853943,231.958282 653.408691,230.936203 643.188843,228.270630 
	C626.206909,223.841354 618.510376,211.342178 623.530701,194.589172 
	C630.216003,172.279968 637.793091,150.237823 645.017212,128.090759 
	C645.472473,126.694855 645.920532,124.933891 647.763672,124.917633 
	C657.007385,124.836113 666.252136,124.880272 676.473083,124.880272 
	C672.345642,136.589706 668.550354,147.356979 664.607788,158.489380 
z"/>
<path fill="#000000" opacity="1.000000" stroke="none" 
	d="
M538.393677,231.007080 
	C533.506165,230.218933 528.991150,229.821884 524.662537,228.703369 
	C505.855560,223.843613 495.918762,208.037155 499.060944,188.336990 
	C504.803802,152.331421 532.562073,126.061798 569.044861,123.137138 
	C583.949402,121.942299 598.353027,124.885628 610.274597,134.935471 
	C617.545288,141.064606 620.258423,149.223419 619.471191,158.612015 
	C619.309814,160.536407 618.977905,162.420258 616.447144,162.335876 
	C608.623779,162.074997 600.820801,163.547897 592.987549,162.565704 
	C591.235718,162.346054 589.956970,161.877014 589.106873,160.047668 
	C583.567627,148.127457 574.580078,144.321198 561.941345,148.390717 
	C545.580261,153.658783 531.633423,173.854065 531.951660,191.203217 
	C532.182800,203.810867 542.318359,208.135193 552.615356,207.320984 
	C561.892700,206.587387 569.428040,202.030746 574.772705,194.403885 
	C576.870056,191.410889 579.250916,190.504990 582.720764,190.580139 
	C591.474854,190.769730 600.235840,190.642960 609.048279,190.642960 
	C606.126831,212.743073 570.761597,232.873459 538.393677,231.007080 
z"/>
<path fill="#000000" opacity="1.000000" stroke="none" 
	d="
M173.544800,222.566101 
	C167.477661,227.282913 161.805481,231.937134 155.875488,236.235687 
	C146.549225,242.996170 136.208145,244.863663 125.031380,241.884766 
	C121.652687,240.984253 118.243355,240.197327 114.871185,239.273895 
	C105.657448,236.750793 97.005333,237.823151 89.201424,243.501465 
	C81.792877,248.892120 74.628380,254.620941 67.172379,259.943024 
	C51.984898,270.783783 33.916870,269.856934 19.296364,257.700378 
	C19.256458,256.699738 19.961630,256.205139 20.704130,255.868500 
	C34.213291,249.743561 45.625366,240.449738 57.102425,231.356445 
	C67.497894,223.120071 78.274994,220.144592 90.987663,225.515640 
	C105.823387,231.783661 119.237389,229.206253 131.179764,218.239807 
	C136.941788,212.948685 143.239014,208.245468 149.152649,203.113297 
	C160.018616,193.683289 172.220154,190.488831 186.311813,194.129944 
	C193.827103,196.071808 201.308365,198.624634 209.381027,197.120026 
	C216.450394,195.802414 222.544205,192.653687 228.335236,188.575912 
	C236.780487,182.629135 244.325562,175.458130 253.297806,170.239914 
	C255.977142,168.681625 258.623535,166.966599 261.706787,166.515732 
	C262.930389,168.396667 262.033234,169.745163 261.521820,171.098602 
	C257.577972,181.535812 253.480087,191.917343 249.710098,202.416733 
	C247.525833,208.499969 242.885956,210.706070 237.105438,211.317871 
	C230.888275,211.975876 224.669571,211.176056 218.873093,209.118805 
	C203.031143,203.496307 189.840317,207.885956 178.095505,218.888184 
	C176.762436,220.136963 175.252213,221.196625 173.544800,222.566101 
z"/>
<path fill="#000000" opacity="1.000000" stroke="none" 
	d="
M955.461853,147.460144 
	C941.931763,161.281769 928.677246,174.878754 915.341736,188.395859 
	C912.957764,190.812225 911.180359,193.396606 910.004578,196.650024 
	C906.667419,205.883881 902.872925,214.952087 899.514282,224.178619 
	C898.187622,227.822998 896.230347,229.455917 892.194397,229.334869 
	C883.593872,229.076874 874.980225,229.255997 866.807800,229.255997 
	C865.334839,226.498749 866.538208,224.872757 867.195496,223.240768 
	C871.300964,213.048096 875.336060,202.822845 879.704346,192.742645 
	C881.119873,189.476105 881.330078,186.540939 880.399719,183.167709 
	C875.490417,165.367188 871.299561,147.364288 865.246033,129.888153 
	C864.763367,128.494690 864.118713,127.085808 864.997192,124.778847 
	C874.135559,124.778847 883.564026,124.691696 892.988892,124.835739 
	C895.576843,124.875290 895.681641,127.473312 896.261780,129.286697 
	C899.703857,140.045837 903.076843,150.827057 906.503052,161.695969 
	C909.044800,161.284317 910.174622,159.271988 911.608154,157.802979 
	C921.030457,148.147202 930.483459,138.516449 939.674133,128.642609 
	C942.432373,125.679260 945.300171,124.515724 949.275513,124.625023 
	C957.853210,124.860847 966.441956,124.697533 976.414795,124.697533 
	C969.525269,133.557266 962.398804,140.188690 955.461853,147.460144 
z"/>
<path fill="#000000" opacity="1.000000" stroke="none" 
	d="
M147.237762,247.338074 
	C156.962570,245.316681 164.142731,239.605362 171.340637,233.904083 
	C177.602707,228.944061 183.692032,223.725876 190.248993,219.187057 
	C201.740189,211.232727 214.165176,208.775986 227.600937,214.170135 
	C231.701706,215.816513 235.970398,217.044632 240.456985,218.564133 
	C239.224625,221.280243 237.012497,221.879623 235.260117,222.906876 
	C222.140152,230.597748 210.102509,239.809448 198.483597,249.532043 
	C186.876266,259.244904 173.995148,262.419891 159.352631,258.805511 
	C156.610931,258.128754 153.731094,257.903046 151.078506,256.992737 
	C139.865234,253.144577 130.264725,256.150665 121.252571,263.172516 
	C114.428658,268.489471 107.318436,273.451782 100.196159,278.369965 
	C89.407822,285.819672 78.017403,286.788177 66.217461,280.868103 
	C62.238499,278.871857 57.917835,277.494019 54.493332,274.888611 
	C54.273472,273.216766 55.284660,272.830444 56.196758,272.492889 
	C68.111336,268.083405 77.926102,260.330292 87.812599,252.688614 
	C92.177116,249.315079 96.835114,246.461563 101.958099,244.350601 
	C110.782089,240.714615 119.507401,241.430008 128.260483,244.604782 
	C134.250320,246.777344 140.389740,248.147018 147.237762,247.338074 
z"/>
</svg>