<svg version="1.1" id="Layer_1" xmlns="http://www.w3.org/2000/svg" xmlns:xlink="http://www.w3.org/1999/xlink" x="0px" y="0px"
	 width="100%" viewBox="0 0 1024 336" enable-background="new 0 0 1024 336" xml:space="preserve">
<path fill="#000000" opacity="1.000000" stroke="none" 
	d="
M277.977356,221.187927 
	C290.207306,180.904434 301.874237,140.880783 313.236938,100.268173 
	C310.332123,100.763748 309.946198,102.604805 309.176239,103.934525 
	C285.476105,144.865250 261.778137,185.797409 238.219528,226.809601 
	C236.143051,230.424469 233.955963,231.738480 229.590988,231.626740 
	C213.440521,231.213303 197.274002,231.427002 181.113525,231.404648 
	C173.837021,231.394577 173.848755,231.394104 173.826050,224.319962 
	C173.713211,189.170502 173.699890,154.020096 173.392532,118.872299 
	C173.325974,111.260361 173.358612,103.697144 173.773361,95.918861 
	C184.509354,95.115105 194.784012,95.229431 205.082825,95.536667 
	C214.233856,95.809662 214.251007,95.596733 214.256119,105.006042 
	C214.270508,131.496109 214.275238,157.986176 214.283646,184.476242 
	C214.284210,186.254791 214.283722,188.033325 214.283722,190.478958 
	C217.789032,189.043213 218.522751,186.336517 219.781281,184.229034 
	C236.433456,156.343826 253.085068,128.457687 269.542755,100.457703 
	C271.676208,96.827965 274.038849,95.505577 278.251312,95.538918 
	C302.217682,95.728653 326.186523,95.593300 350.154510,95.611023 
	C352.275177,95.612595 354.494415,95.141373 356.458466,96.333923 
	C357.294708,97.908371 356.535431,99.342079 356.123352,100.722519 
	C346.558777,132.763535 336.960297,164.794434 327.356171,196.823654 
	C324.346283,206.861404 321.194977,216.858459 318.334229,226.938217 
	C317.405731,230.209778 315.802094,231.526230 312.360840,231.466034 
	C302.367462,231.291245 292.369202,231.412827 282.372986,231.379105 
	C275.171051,231.354813 275.060181,231.180069 277.056152,224.457077 
	C277.340027,223.501007 277.590698,222.535080 277.977356,221.187927 
z"/>
<path fill="#000000" opacity="1.000000" stroke="none" 
	d="
M595.429932,100.398438 
	C608.702698,109.744591 613.170410,122.203911 608.377258,137.215134 
	C604.662109,148.850220 598.145081,158.517868 586.846619,164.156036 
	C583.255981,165.947845 582.695618,167.892014 585.229431,171.093628 
	C590.616028,177.899933 591.505371,185.532074 589.005981,193.737000 
	C585.611389,204.880585 582.224670,216.028412 579.037292,227.232101 
	C578.104248,230.511734 576.554993,231.641922 573.059631,231.545471 
	C562.905151,231.265244 552.738342,231.448486 542.576721,231.392960 
	C540.616699,231.382248 538.571594,231.771591 536.695435,230.668732 
	C535.649963,228.795715 536.721191,227.110947 537.217590,225.429077 
	C540.938721,212.822845 544.747620,200.242447 548.453491,187.631775 
	C550.906372,179.284988 548.451233,175.984299 539.871338,175.932556 
	C534.707397,175.901398 529.543030,175.939941 524.378906,175.925995 
	C516.726746,175.905319 516.706299,175.891296 514.482361,183.416031 
	C510.332336,197.457367 506.080994,211.470886 502.147552,225.572876 
	C500.871613,230.147385 498.903046,231.929611 493.781128,231.649796 
	C483.987762,231.114746 474.139191,231.562866 464.314117,231.661194 
	C462.316620,231.681198 460.329407,231.906326 458.235321,230.653946 
	C457.878967,227.385895 459.295929,224.308792 460.192200,221.207245 
	C471.739319,181.247223 483.407043,141.321991 494.902924,101.347305 
	C496.095703,97.199646 497.956879,95.463562 502.513885,95.500801 
	C527.500488,95.704971 552.490051,95.657066 577.477783,95.532356 
	C583.854370,95.500526 589.615234,97.220695 595.429932,100.398438 
M556.886902,145.667084 
	C560.595703,144.161972 563.305969,141.612503 564.907471,137.931580 
	C567.531250,131.900757 563.922424,125.677925 557.334412,125.424347 
	C550.212341,125.150215 543.071533,125.375801 535.938965,125.352509 
	C533.940674,125.345985 532.225586,125.894234 531.590027,127.934845 
	C530.013550,132.996780 528.597473,138.108459 527.055664,143.181503 
	C526.392212,145.364212 527.369202,146.542969 529.370789,146.530151 
	C538.295471,146.473068 547.246765,147.443146 556.886902,145.667084 
z"/>
<path fill="#000000" opacity="1.000000" stroke="none" 
	d="
M807.446289,229.765503 
	C802.697693,231.192719 798.239563,231.432648 793.717896,231.428619 
	C768.903992,231.406509 744.090088,231.460419 719.276184,231.495789 
	C717.784729,231.497910 716.282043,231.636902 714.923706,230.873032 
	C714.062927,229.156174 714.697937,227.555725 715.144409,225.982452 
	C726.948608,184.386337 738.833679,142.812897 750.486633,101.174500 
	C751.705261,96.820007 753.655212,95.482742 758.085815,95.499161 
	C782.562256,95.589844 807.039734,95.311813 831.517151,95.267708 
	C847.500366,95.238907 857.955811,102.095207 861.628784,114.896164 
	C863.354980,120.912315 863.624512,126.966759 861.968994,133.116623 
	C856.130127,154.806900 849.962402,176.424011 842.331238,197.532379 
	C836.458618,213.776703 824.678101,224.669525 807.446289,229.765503 
M801.769714,192.165466 
	C803.137878,187.541962 804.515625,182.921249 805.872375,178.294403 
	C809.945374,164.404770 814.033813,150.519608 818.069458,136.619110 
	C820.516785,128.189392 817.569641,124.304428 808.735840,124.254601 
	C803.239258,124.223595 797.737122,124.419159 792.247253,124.229179 
	C788.343384,124.094086 786.099670,125.315201 785.193176,129.429199 
	C784.050110,134.616608 782.287415,139.668259 780.774963,144.773376 
	C775.529175,162.479523 770.265564,180.180389 765.032349,197.890244 
	C763.515625,203.023026 763.995300,203.662491 769.385742,203.721420 
	C774.215759,203.774231 779.077698,203.394409 783.870605,203.821655 
	C792.649292,204.604218 798.123840,200.560165 801.769714,192.165466 
z"/>
<path fill="#000000" opacity="1.000000" stroke="none" 
	d="
M456.797516,204.700012 
	C454.503326,212.596191 452.362030,220.116699 450.162659,227.620178 
	C449.600647,229.537552 449.059509,231.468369 446.343445,231.444962 
	C433.519379,231.334488 420.694580,231.311646 407.870239,231.225647 
	C407.412170,231.222565 406.956360,230.884384 406.395844,230.661087 
	C405.596741,227.899841 406.978973,225.464951 407.700592,222.998444 
	C415.876190,195.054489 424.131775,167.133957 432.336060,139.198364 
	C432.943329,137.130615 433.571747,135.016739 433.753540,132.887054 
	C434.153015,128.205963 431.861450,125.478752 427.206940,125.363808 
	C419.381836,125.170555 411.547607,125.366058 403.720734,125.216042 
	C400.077423,125.146210 398.981812,127.235176 398.086823,130.263565 
	C388.797729,161.695847 379.393951,193.094193 370.052887,224.511154 
	C367.924011,231.671280 367.980255,231.553604 360.641144,231.466080 
	C351.481323,231.356842 342.318176,231.462219 333.157227,231.550568 
	C330.675171,231.574493 328.227936,231.608582 325.420990,230.807877 
	C326.436157,223.661942 328.920502,217.141037 330.828857,210.512970 
	C341.093719,174.861115 351.502838,139.250626 361.941864,103.649231 
	C364.803833,93.888870 363.742279,95.651070 372.657898,95.619400 
	C398.142670,95.528877 423.644806,96.166489 449.107849,95.418243 
	C470.313507,94.795113 484.586273,112.713684 478.005707,134.054321 
	C470.800629,157.420197 463.939728,180.892227 456.797516,204.700012 
z"/>
<path fill="#000000" opacity="1.000000" stroke="none" 
	d="
M626.134583,231.400482 
	C605.738098,230.727188 592.671204,214.398621 597.555725,194.798203 
	C602.783447,173.820770 609.230286,153.145782 615.214355,132.358734 
	C618.299500,121.641899 621.521912,110.964447 624.714417,100.278793 
	C625.316895,98.262413 625.532776,95.728157 628.458679,95.717407 
	C641.574219,95.669266 654.690063,95.696449 667.513916,95.696449 
	C668.959717,98.100319 667.744141,99.777046 667.267029,101.449547 
	C658.591553,131.858032 649.851868,162.248169 641.165955,192.653671 
	C638.849670,200.761871 641.861755,204.710281 650.375977,204.815399 
	C655.540833,204.879181 660.729431,204.521561 665.866455,204.903687 
	C670.654907,205.259903 672.590820,203.166519 673.833008,198.794373 
	C680.290710,176.065506 687.004639,153.409470 693.627563,130.727570 
	C696.659912,120.342377 699.693726,109.957581 702.713379,99.568703 
	C703.288879,97.588936 703.859253,95.659027 706.482483,95.660019 
	C718.930237,95.664742 731.378052,95.662132 743.540344,95.662132 
	C745.024292,98.014771 744.039551,99.720215 743.538330,101.419838 
	C731.489624,142.275314 719.434692,183.128922 707.360352,223.976837 
	C705.156433,231.432663 705.115356,231.421921 697.602295,231.420395 
	C673.939880,231.415604 650.277405,231.409653 626.134583,231.400482 
z"/>
<path fill="#000000" opacity="1.000000" stroke="none" 
	d="
M56.674637,145.799316 
	C61.064121,130.539536 65.449821,115.695145 69.591606,100.783012 
	C70.570473,97.258682 71.914497,95.528763 75.982697,95.550438 
	C105.644279,95.708527 135.307159,95.614166 164.969620,95.629662 
	C166.582535,95.630501 168.318665,95.245422 170.114349,96.816826 
	C168.164658,105.516701 165.266037,114.158630 162.302139,122.766266 
	C161.324310,125.605988 158.472137,124.972168 156.225906,124.978943 
	C141.728134,125.022690 127.226479,125.180199 112.734161,124.893112 
	C107.559845,124.790604 105.076462,126.377289 103.625710,131.597412 
	C99.384903,146.856750 100.363930,144.733582 113.632736,144.767197 
	C125.964287,144.798431 138.296143,144.748245 150.627487,144.808578 
	C155.862640,144.834183 156.263779,145.433563 154.806854,150.297882 
	C152.943985,156.517563 150.822113,162.671295 149.254700,168.963760 
	C148.207336,173.168427 145.989822,174.395660 141.811493,174.333481 
	C127.150070,174.115295 112.479126,174.448334 97.821190,174.134064 
	C92.877892,174.028076 90.467506,175.797272 89.385490,180.438904 
	C88.442604,184.483704 86.915703,188.388687 85.849396,192.409164 
	C83.843994,199.970444 86.614456,203.633041 94.396187,203.671936 
	C107.727379,203.738571 121.059158,203.680328 134.390549,203.720810 
	C136.174561,203.726227 138.074097,203.330154 140.114594,204.938507 
	C138.364548,213.322754 135.680725,221.667572 132.875534,229.966614 
	C132.229477,231.877945 130.238739,231.632706 128.550552,231.625320 
	C109.055496,231.540009 89.560089,231.515106 70.065346,231.386917 
	C53.424225,231.277512 43.437943,222.620682 41.052593,206.383469 
	C40.407078,201.989410 41.333817,197.735626 42.543308,193.586624 
	C47.154682,177.767883 51.891644,161.985733 56.674637,145.799316 
z"/>
<path fill="#000000" opacity="1.000000" stroke="none" 
	d="
M927.048950,125.019913 
	C914.934875,125.259476 916.752869,123.372192 913.397339,135.200455 
	C910.695740,144.723358 908.678894,144.801376 920.576050,144.786880 
	C933.903015,144.770645 947.230042,144.760696 960.556885,144.799423 
	C966.483582,144.816635 966.827881,145.278503 965.208252,150.708313 
	C963.353333,156.927094 961.246582,163.077454 959.605164,169.350693 
	C958.626038,173.092346 956.657532,174.342163 952.863831,174.303101 
	C937.872803,174.148743 922.876648,174.410645 907.887573,174.179688 
	C903.402039,174.110565 901.175903,175.676361 900.168457,179.980423 
	C899.185120,184.181335 897.591431,188.235825 896.372498,192.385925 
	C894.186096,199.829971 896.967285,203.644043 904.675720,203.675705 
	C918.002441,203.730469 931.329651,203.681961 944.656616,203.704224 
	C946.626831,203.707520 948.653870,203.431915 951.013306,204.618622 
	C950.714294,209.861923 948.506897,214.744370 947.087646,219.755051 
	C943.772034,231.460876 943.638916,231.414337 931.611267,231.407822 
	C914.785950,231.398697 897.960449,231.457947 881.135437,231.390045 
	C860.443481,231.306534 847.385071,215.355499 852.726318,195.316315 
	C859.365356,170.407532 867.147888,145.803696 874.422852,121.064117 
	C876.535278,113.880272 878.690247,106.706757 880.639709,99.478310 
	C881.350952,96.840721 882.523682,95.574623 885.430847,95.580719 
	C916.082520,95.645027 946.734375,95.608093 977.386230,95.618088 
	C978.184937,95.618347 978.983459,95.833817 980.213562,96.011101 
	C980.038879,100.911858 978.220459,105.217422 976.749512,109.496330 
	C975.040100,114.468697 975.600037,121.082237 971.218628,124.058311 
	C967.107727,126.850563 961.159119,124.846352 956.026123,124.933678 
	C946.533020,125.095177 937.035706,125.005318 927.048950,125.019913 
z"/>
<path fill="#000000" opacity="1.000000" stroke="none" 
	d="
M963.023438,229.913605 
	C958.143921,223.607544 957.287415,217.158142 961.310364,210.596603 
	C964.990662,204.593933 970.498596,201.479126 977.693237,202.348328 
	C985.084595,203.241287 989.773315,207.561066 991.848083,214.626740 
	C993.903992,221.628204 990.927490,229.065338 984.766174,232.808502 
	C977.628296,237.144958 969.960876,236.211044 963.023438,229.913605 
M983.957397,216.769028 
	C980.984924,220.268936 982.175964,223.231689 984.938477,226.199463 
	C989.531433,220.959869 989.623230,215.795151 985.410034,210.996552 
	C981.094482,206.081406 975.748535,205.056839 970.546875,208.256210 
	C972.766663,209.466553 975.096191,208.863647 977.320435,208.983566 
	C981.821411,209.226257 984.597351,211.038574 983.957397,216.769028 
M963.596924,215.509659 
	C962.685791,219.828857 962.712158,223.870773 967.227539,227.286285 
	C968.007507,221.285782 967.711914,215.887024 967.311096,210.117020 
	C965.404663,211.565842 964.593689,213.152695 963.596924,215.509659 
M977.118225,223.586136 
	C975.037781,221.071121 973.515625,221.213562 973.160645,224.633804 
	C972.932800,226.829514 972.232849,228.619049 969.915833,229.812637 
	C973.922302,231.818588 977.266785,232.111389 980.599609,229.817917 
	C979.498108,227.834106 978.477417,225.995819 977.118225,223.586136 
M976.148743,213.429977 
	C974.559204,213.502335 972.726257,213.659012 973.758667,215.885590 
	C974.398193,217.264862 976.183289,217.109909 977.310791,216.382233 
	C979.005737,215.288300 978.369934,214.229279 976.148743,213.429977 
z"/>
</svg>