<svg version="1.1" id="Layer_1" xmlns="http://www.w3.org/2000/svg" xmlns:xlink="http://www.w3.org/1999/xlink" x="0px" y="0px"
	 width="100%" viewBox="0 0 1024 336" enable-background="new 0 0 1024 336" xml:space="preserve">
<path fill="#000000" opacity="1.000000" stroke="none" 
	d="
M530.994324,89.659798 
	C533.658936,89.653008 535.824890,89.628632 537.990479,89.646721 
	C546.009460,89.713684 545.904419,89.736488 547.240906,97.738564 
	C551.020874,120.370369 554.863281,142.991974 558.793091,165.598145 
	C559.107483,167.406891 558.663757,169.700363 561.089417,171.134079 
	C563.295532,168.164658 563.131775,164.570663 563.726135,161.300644 
	C567.770081,139.051315 571.774231,116.793266 575.513916,94.491531 
	C576.165710,90.603958 577.839722,89.572388 581.427429,89.620491 
	C592.421143,89.767906 603.417908,89.685211 614.413452,89.704292 
	C620.646362,89.715103 621.023743,90.084579 621.032104,96.684883 
	C621.067749,124.840096 621.102295,152.995331 621.093323,181.150558 
	C621.085327,206.306900 621.022156,231.463211 620.977783,256.619537 
	C620.965332,263.662354 620.563904,264.096161 613.753357,264.123322 
	C607.756042,264.147247 601.752014,263.929626 595.763000,264.148132 
	C591.160095,264.316010 589.707031,262.374695 589.723999,257.908875 
	C589.827209,230.753601 589.737915,203.597519 589.668274,176.441833 
	C589.663330,174.500610 590.131470,172.470703 588.921875,170.214539 
	C586.664062,171.602676 586.914307,174.025986 586.565918,175.853409 
	C581.364685,203.139145 576.227234,230.437622 571.261658,257.767059 
	C570.432556,262.329895 568.565247,264.276001 563.699768,264.133698 
	C547.909485,263.671875 551.051758,266.554260 547.932617,251.009277 
	C542.534363,224.105774 537.737122,197.081680 532.678650,170.109894 
	C532.590393,169.639175 532.387451,169.189972 532.024292,168.074127 
	C530.700745,170.300797 531.115723,172.250427 531.110657,174.037918 
	C531.033081,201.359802 531.011475,228.681839 530.965027,256.003815 
	C530.952271,263.494995 530.520081,263.933594 523.085083,263.971283 
	C517.754089,263.998322 512.415283,263.788391 507.093781,264.011841 
	C502.447906,264.206970 500.643829,262.575958 500.664612,257.675537 
	C500.867859,209.695663 500.869751,161.714935 500.932495,113.734459 
	C500.940552,107.570343 501.056824,101.404839 500.956390,95.242683 
	C500.892609,91.328629 502.268372,89.498886 506.508453,89.624023 
	C514.497559,89.859810 522.499084,89.672897 530.994324,89.659798 
z"/>
<path fill="#000000" opacity="1.000000" stroke="none" 
	d="
M137.026978,275.262634 
	C96.570702,263.190826 70.898232,237.117691 60.736015,196.504822 
	C49.332977,150.933044 76.750496,98.923973 123.655701,80.773628 
	C167.701660,63.729706 216.893600,77.743935 245.073669,115.608780 
	C271.145355,150.640625 270.516052,202.171127 243.442505,236.833084 
	C221.937271,264.365997 193.500916,277.966248 158.665833,278.210205 
	C151.496475,278.260437 144.418869,276.987488 137.026978,275.262634 
M249.706604,175.467346 
	C249.335953,118.349625 198.246429,85.697128 165.154480,89.786957 
	C165.047562,90.095596 164.781982,90.451134 164.857300,90.705894 
	C166.176575,95.168221 167.587250,99.603981 168.868317,104.076950 
	C169.498703,106.277969 170.246262,108.398552 168.934921,110.806015 
	C165.773087,116.610771 166.657867,123.161842 171.274643,127.571892 
	C175.519226,131.626419 177.821198,136.260986 177.322159,142.231506 
	C177.191986,143.788971 176.793091,145.564362 178.084244,146.951019 
	C179.824310,147.311783 180.941925,146.153381 182.203232,145.432129 
	C191.313950,140.222336 200.449615,135.054550 209.497025,129.736755 
	C212.200119,128.147934 214.069290,127.797714 216.097061,130.889618 
	C218.338089,134.306702 218.071167,136.226685 214.346878,138.317047 
	C203.018173,144.675629 191.910110,151.426147 180.626129,157.866364 
	C177.623444,159.580139 177.058777,161.997025 177.403046,165.011765 
	C177.734039,167.910278 180.131058,168.758057 182.310303,169.321808 
	C184.970642,170.009995 186.997589,167.949448 189.111221,166.738708 
	C199.808563,160.610962 210.489685,154.452271 221.083237,148.147705 
	C223.814255,146.522385 225.375076,147.150497 226.573471,149.804214 
	C227.621719,152.125534 229.792526,154.436325 225.995178,156.460175 
	C221.881912,158.652420 217.876022,161.050217 213.862152,163.424072 
	C207.201096,167.363510 200.571091,171.355438 193.890625,175.347610 
	C194.491241,176.217407 194.630096,176.529388 194.863861,176.731720 
	C195.239441,177.056824 195.650696,177.363770 196.093658,177.584564 
	C202.582687,180.818878 207.097580,185.310532 207.582611,193.172195 
	C207.780411,196.378403 216.690948,203.104279 219.875107,202.812866 
	C223.812271,202.452545 226.035004,204.352493 228.059097,207.319595 
	C230.635086,211.095703 232.981567,215.158905 237.616730,217.880676 
	C245.397156,204.868042 249.177383,191.132065 249.706604,175.467346 
M99.275406,113.765800 
	C80.123642,134.570892 70.301277,158.580719 74.331749,187.219452 
	C75.873039,198.171173 79.622437,208.393692 85.373375,218.217239 
	C89.348442,215.637222 91.284111,211.861069 93.921104,208.735123 
	C95.865761,206.429932 97.768837,204.005005 100.953239,203.454437 
	C108.802132,202.097412 113.278603,197.161194 115.489693,189.867935 
	C116.847557,185.389008 118.960625,181.669815 123.446182,179.579269 
	C125.278656,178.725220 127.559219,178.106995 128.237183,175.199203 
	C125.163483,173.313751 122.083641,171.372040 118.953537,169.515045 
	C111.648178,165.181076 104.348625,160.835587 96.981163,156.609039 
	C94.694252,155.297089 93.985695,153.953491 95.201027,151.375351 
	C97.471268,146.559357 98.230209,146.158615 103.022911,148.955170 
	C113.952911,155.332855 124.859970,161.750534 135.731598,168.227081 
	C138.288681,169.750397 140.597488,170.093170 143.073669,168.121292 
	C145.436722,166.239487 145.253021,163.747177 144.828171,161.272049 
	C144.407349,158.820297 142.129700,158.069962 140.288864,156.982346 
	C129.678558,150.713547 119.087051,144.412354 108.438210,138.209656 
	C105.802696,136.674530 104.247513,135.322891 106.378967,132.022141 
	C108.357338,128.958466 110.086617,127.793823 113.594383,129.918579 
	C122.279816,135.179611 131.126663,140.175171 139.936188,145.229385 
	C141.455002,146.100754 142.860916,147.488174 144.966583,146.952957 
	C145.160751,146.476440 145.533997,146.013596 145.495300,145.588226 
	C144.772461,137.642426 147.100510,131.351181 153.181198,125.578049 
	C156.291901,122.624680 157.180389,116.607643 154.529449,112.074898 
	C152.676926,108.907318 152.739441,106.230095 153.892914,103.124748 
	C154.878067,100.472534 155.757202,97.779594 156.632385,95.088135 
	C158.421951,89.584641 157.930588,88.790901 152.264069,89.194679 
	C131.776260,90.654549 114.653099,99.543991 99.275406,113.765800 
M140.618256,205.417389 
	C135.110718,209.695740 129.130402,209.964523 122.672363,207.892761 
	C119.093300,206.744583 110.447380,210.650238 109.125954,214.130142 
	C107.685425,217.923645 104.891617,218.894196 101.405830,219.302933 
	C96.994698,219.820175 92.532059,220.127502 87.378586,221.992569 
	C104.239227,246.510315 126.641930,260.932739 155.928482,262.497986 
	C189.672668,264.301422 215.987503,250.221741 235.286652,222.153610 
	C231.482742,220.037628 227.887283,219.938522 224.529739,219.654541 
	C219.518112,219.230667 216.300598,217.140808 212.857544,213.345810 
	C209.116425,209.222260 203.789429,205.974854 197.264923,208.207779 
	C192.422760,209.864944 187.950287,209.341782 183.502090,206.402435 
	C178.802139,203.296722 177.371399,204.205765 177.323135,209.730103 
	C177.240189,219.224899 177.156708,228.723068 177.331238,238.215088 
	C177.403427,242.141281 176.272049,244.042709 172.009460,244.027832 
	C167.569199,244.012344 166.860779,241.711182 166.904388,237.983887 
	C167.044739,225.991348 166.814880,213.993179 167.057098,202.003830 
	C167.144089,197.697403 165.933487,194.677948 161.572479,193.949097 
	C158.164612,193.379547 155.432678,197.146103 155.424957,201.848328 
	C155.404465,214.342285 155.324478,226.836777 155.421616,239.329849 
	C155.445770,242.437454 154.457962,243.905045 151.198761,244.014511 
	C147.269104,244.146500 145.486191,242.913422 145.589005,238.594833 
	C145.826843,228.606049 145.680481,218.605865 145.550751,208.612122 
	C145.517197,206.027908 145.754181,202.473297 140.618256,205.417389 
M155.473129,138.478989 
	C155.432953,142.795319 155.380814,147.111588 155.355988,151.428009 
	C155.331680,155.654419 158.707733,156.884460 161.664902,157.018265 
	C164.504181,157.146744 166.958817,155.209473 166.915588,151.609161 
	C166.873718,148.122070 166.898560,144.633072 166.962097,141.146133 
	C167.033096,137.250504 165.391174,133.899780 161.844345,132.872009 
	C158.648453,131.945908 157.386688,135.559189 155.473129,138.478989 
M144.379120,191.742828 
	C146.133759,189.106796 146.418350,186.336136 144.075836,184.067245 
	C141.614487,181.683258 138.781677,180.902878 135.603714,183.344147 
	C133.641998,184.851089 131.287750,185.840469 129.139862,187.113098 
	C125.493752,189.273453 122.840736,194.581207 124.190353,196.932709 
	C125.474335,199.169846 131.125702,199.483002 134.723618,197.460556 
	C137.771790,195.747116 140.780273,193.963028 144.379120,191.742828 
M178.515488,184.249451 
	C176.251541,188.071884 176.956070,191.157486 180.833862,193.411331 
	C183.550766,194.990463 186.204193,196.722549 189.053284,198.018509 
	C192.071243,199.391266 195.726196,199.821426 197.487213,196.598480 
	C199.204376,193.455826 197.649979,190.141281 194.715179,188.011215 
	C192.447174,186.365143 189.825851,185.207764 187.546707,183.574768 
	C184.577820,181.447556 181.836105,181.304428 178.515488,184.249451 
M167.619537,176.375122 
	C167.352829,172.001602 164.383789,168.213440 161.107025,168.736893 
	C158.072937,169.221588 155.699081,170.856979 155.312653,174.527023 
	C154.857864,178.845963 156.394012,181.944656 160.675186,182.449753 
	C164.114273,182.855484 167.203644,181.414612 167.619537,176.375122 
z"/>
<path fill="#000000" opacity="1.000000" stroke="none" 
	d="
M758.733398,192.000000 
	C758.747253,160.009766 758.755188,128.519531 758.780640,97.029297 
	C758.786560,89.712074 758.820557,89.670074 765.898926,89.632095 
	C772.562866,89.596344 779.233521,89.824829 785.889038,89.590576 
	C789.996399,89.446007 791.470459,90.921524 791.440674,95.057549 
	C791.306274,113.717331 791.396484,132.378769 791.417725,151.039612 
	C791.426514,158.753098 792.224548,159.552689 800.040039,159.648331 
	C804.371521,159.701355 808.703857,159.716003 813.035706,159.702637 
	C819.690796,159.682114 819.848022,159.558884 819.859985,153.063065 
	C819.894409,134.402252 819.879822,115.741364 819.899170,97.080521 
	C819.906799,89.747025 819.924316,89.719879 827.449646,89.667686 
	C833.780457,89.623779 840.111877,89.655823 846.442993,89.648735 
	C852.562744,89.641876 853.013672,90.019211 853.022705,96.131645 
	C853.067322,126.288826 853.096680,156.446060 853.089111,186.603287 
	C853.083252,210.095840 853.026794,233.588409 852.968506,257.080902 
	C852.950806,264.203217 852.789368,264.349030 845.688721,264.365112 
	C839.190857,264.379852 832.680542,264.090942 826.198914,264.408173 
	C821.316040,264.647156 819.813538,262.677185 819.848267,258.016113 
	C819.994873,238.356750 819.908813,218.695572 819.889282,199.035080 
	C819.881042,190.768585 819.391602,190.317200 811.082275,190.353073 
	C806.750427,190.371765 802.408997,190.525406 798.089172,190.294464 
	C793.587280,190.053787 791.589722,192.185211 791.496033,196.423203 
	C791.396606,200.919846 791.405579,205.419266 791.400146,209.917511 
	C791.380432,226.079117 791.232300,242.242676 791.452515,258.401123 
	C791.516113,263.069611 789.845093,264.564453 785.352600,264.388580 
	C778.364929,264.115051 771.351990,264.086243 764.364746,264.350281 
	C759.904114,264.518890 758.628540,262.717285 758.656616,258.478180 
	C758.802490,236.486237 758.730103,214.492874 758.733398,192.000000 
z"/>
<path fill="#000000" opacity="1.000000" stroke="none" 
	d="
M948.321716,118.830933 
	C954.038574,152.874069 959.682922,186.489075 965.418091,220.088577 
	C967.515503,232.376480 969.835571,244.626328 972.040283,256.895996 
	C973.380066,264.352234 972.977600,264.862976 965.335327,264.955688 
	C958.838745,265.034485 952.340271,264.965363 945.843994,265.055420 
	C942.659424,265.099518 941.009583,263.910187 940.580078,260.522552 
	C939.429993,251.451538 937.841064,242.435562 936.728088,233.360748 
	C936.201050,229.063370 934.828613,226.709885 929.919434,227.072784 
	C924.618103,227.464645 919.261353,227.244751 913.934082,227.098190 
	C910.509277,227.003952 908.771667,228.266739 908.296326,231.824020 
	C907.085083,240.889114 905.369019,249.891403 904.334595,258.973450 
	C903.817871,263.510101 901.612671,264.989227 897.492065,264.865601 
	C890.501709,264.655823 883.499268,264.200958 876.521606,264.435547 
	C871.588379,264.601379 871.000366,262.555603 871.782593,258.428284 
	C874.569031,243.725937 877.234802,228.999725 879.822083,214.260773 
	C886.807434,174.467636 893.771729,134.670654 900.602173,94.850815 
	C901.215576,91.275085 902.415771,89.548454 906.267151,89.598053 
	C917.257385,89.739571 928.251465,89.687866 939.242615,89.574677 
	C942.629944,89.539803 943.862549,91.111786 944.324768,94.285782 
	C945.498169,102.344109 946.946777,110.362358 948.321716,118.830933 
M916.194946,177.458389 
	C915.851440,179.923492 915.550049,182.395325 915.157532,184.852615 
	C912.783813,199.714401 913.914001,196.190933 925.788330,196.748566 
	C929.818420,196.937836 930.984558,195.599777 930.335815,191.492310 
	C928.240417,178.224487 926.593811,164.886230 924.566345,151.606857 
	C924.103271,148.573624 924.198181,145.217758 921.429077,141.329163 
	C919.573059,153.962357 917.912415,165.265854 916.194946,177.458389 
z"/>
<path fill="#000000" opacity="1.000000" stroke="none" 
	d="
M690.670898,226.855621 
	C687.231506,226.750946 684.236816,226.669495 681.250488,226.465118 
	C677.746582,226.225311 675.578186,227.348068 675.020386,231.207748 
	C673.688416,240.424988 671.940308,249.584412 670.726257,258.815338 
	C670.164551,263.086456 668.102112,264.397522 664.092651,264.276764 
	C657.100830,264.066193 650.098633,264.058716 643.103333,264.154297 
	C639.040833,264.209808 637.399109,262.989563 638.215088,258.522705 
	C644.281799,225.310333 650.230103,192.075928 656.085999,158.825623 
	C659.748840,138.027420 663.281128,117.204849 666.652466,96.357712 
	C667.406189,91.696915 668.899902,89.330910 674.227295,89.550697 
	C684.206116,89.962387 694.221680,89.872292 704.207581,89.546997 
	C708.750366,89.399017 710.333069,91.325005 711.010925,95.421127 
	C714.647522,117.397896 718.433838,139.349899 722.174561,161.309418 
	C727.675476,193.601089 733.172424,225.893433 738.694153,258.181519 
	C739.638550,263.704346 739.304749,264.214966 733.600464,264.256409 
	C726.936829,264.304840 720.258057,263.969299 713.613037,264.318481 
	C708.717224,264.575775 707.257080,262.206177 706.694763,257.939728 
	C705.630432,249.864304 704.334839,241.816238 702.976746,233.783585 
	C701.735107,226.438980 700.894165,225.873047 693.598877,226.515472 
	C692.769714,226.588486 691.945740,226.720047 690.670898,226.855621 
M687.712585,144.915665 
	C685.657227,158.378693 683.648560,171.849075 681.532410,185.302551 
	C679.693298,196.994629 679.638550,196.857468 691.455383,196.755798 
	C695.545776,196.720596 697.303955,195.439621 696.702942,191.189682 
	C694.610046,176.390610 692.653503,161.572250 690.564697,146.772568 
	C690.394958,145.570389 690.699463,143.323410 687.712585,144.915665 
z"/>
<path fill="#000000" opacity="1.000000" stroke="none" 
	d="
M474.611298,226.516052 
	C476.561859,237.238113 478.288239,247.565216 480.279480,257.840973 
	C481.103912,262.095428 480.001495,264.070465 475.414825,263.931366 
	C469.093109,263.739746 462.762177,263.857697 456.435333,263.825012 
	C453.072723,263.807648 451.052429,262.290009 449.721893,259.016693 
	C446.336365,250.687988 446.379333,241.758636 444.759583,233.131622 
	C443.532288,226.594742 443.572174,226.293442 436.967804,226.267212 
	C432.138550,226.248032 427.300720,226.443176 422.482361,226.213974 
	C418.434937,226.021454 416.842590,227.916885 416.322449,231.667953 
	C415.089417,240.560272 413.436615,249.399246 412.397552,258.311554 
	C411.894958,262.622559 409.824860,264.053101 405.875580,263.930267 
	C398.222717,263.692200 390.568573,263.443298 382.913208,263.362000 
	C378.755737,263.317810 379.462158,260.635864 379.898346,258.184357 
	C383.187897,239.696655 386.612274,221.232666 389.846039,202.735321 
	C396.141541,166.724777 402.403748,130.708023 408.484619,94.660912 
	C409.121460,90.885872 410.574799,89.576263 414.263519,89.622238 
	C425.252533,89.759186 436.244781,89.713120 447.234955,89.630219 
	C450.261200,89.607391 451.737579,90.791161 452.247711,93.841850 
	C459.621185,137.935043 467.066071,182.016296 474.611298,226.516052 
M437.514343,184.921509 
	C435.168060,171.064987 434.401825,156.926895 430.353943,143.303696 
	C427.807312,148.968094 427.446472,154.949966 426.496826,160.773621 
	C424.920135,170.442978 423.692505,180.172455 422.498169,189.898743 
	C422.200867,192.319916 420.933563,195.792557 424.957031,196.323624 
	C429.028442,196.861023 433.616455,197.827499 437.172302,195.597824 
	C440.414185,193.565018 437.083191,189.770355 437.672760,186.794144 
	C437.735168,186.478989 437.638947,186.132370 437.514343,184.921509 
z"/>
<path fill="#000000" opacity="1.000000" stroke="none" 
	d="
M331.059235,147.963440 
	C331.970764,150.286530 331.900391,152.632980 333.818085,154.155426 
	C336.286041,153.645950 335.951599,151.341141 336.398376,149.805908 
	C341.604431,131.915466 346.841034,114.030518 351.689941,96.041801 
	C353.013000,91.133598 355.257599,89.285515 360.355530,89.557579 
	C367.947723,89.962738 375.577545,89.662628 382.752899,89.662628 
	C384.274963,92.093170 383.228760,93.597664 382.733826,95.114029 
	C372.200043,127.385803 361.661316,159.655991 351.075043,191.910568 
	C350.172119,194.661728 349.986359,197.440277 349.969849,200.279190 
	C349.855560,219.926025 349.695709,239.572708 349.648499,259.219666 
	C349.642120,261.871307 348.888733,263.372681 346.040985,263.360138 
	C337.380096,263.321991 328.718994,263.285767 320.058105,263.307434 
	C317.255798,263.314453 316.369019,262.002197 316.366364,259.280762 
	C316.351929,244.463287 315.649536,229.623795 316.248993,214.835037 
	C316.799835,201.246353 314.239136,188.499969 309.900696,175.762573 
	C300.726898,148.828659 292.006958,121.740150 283.108337,94.712593 
	C282.698486,93.467804 282.061005,92.248871 282.458282,90.790649 
	C283.663055,89.217392 285.454102,89.728371 287.028168,89.712677 
	C293.856506,89.644600 300.701050,89.946938 307.509460,89.569397 
	C312.137695,89.312767 314.297241,90.821823 315.582703,95.412895 
	C320.470825,112.870384 325.783569,130.208984 331.059235,147.963440 
z"/>
</svg>