<svg version="1.1" id="Layer_1" xmlns="http://www.w3.org/2000/svg" xmlns:xlink="http://www.w3.org/1999/xlink" x="0px" y="0px"
	 width="100%" viewBox="129.796 107.139 767.171 767.171" enable-background="new 129.796 107.139 767.171 767.171" xml:space="preserve">
<path fill="#000000" opacity="1.000000" stroke="none" 
	d="
M486.828186,321.000977 
	C488.776611,308.227478 486.199585,298.337036 472.916443,294.084656 
	C427.315582,262.588196 430.473145,194.507660 479.386871,168.569733 
	C522.225464,145.853363 575.762573,170.438248 584.372437,219.925766 
	C588.617249,244.324585 581.937561,265.408386 565.695740,283.622711 
	C559.907104,290.114319 552.904846,295.349762 544.909912,298.928497 
	C541.371643,300.512238 539.846008,302.640839 539.895264,306.534760 
	C540.053223,319.031067 540.055420,331.531677 539.911011,344.028229 
	C539.862366,348.232483 541.320801,350.056580 545.704773,350.031982 
	C563.692200,349.931122 581.699097,350.556763 599.629517,348.613800 
	C604.744019,348.059601 609.807495,347.014038 614.884338,346.135681 
	C629.783936,343.557800 639.905518,351.938751 640.402466,367.145477 
	C640.679443,375.621704 639.665161,383.580627 632.176453,389.018799 
	C627.254761,392.592865 621.612915,394.159760 615.611023,392.857513 
	C592.574097,387.859161 569.211182,389.278564 545.925720,388.971710 
	C541.257935,388.910217 539.914551,390.936554 539.927246,395.297668 
	C540.007629,422.960358 539.897583,450.623474 539.897156,478.286469 
	C539.896057,548.610962 540.101196,618.936218 539.810791,689.259460 
	C539.734375,707.754883 554.582581,724.575928 576.455688,721.160339 
	C600.370667,717.425842 621.751770,707.986877 641.870850,695.268188 
	C670.358704,677.259033 693.332458,653.698547 710.817261,624.843689 
	C711.844604,623.148315 713.031372,621.503845 713.212463,619.365845 
	C712.305420,617.680420 710.562134,617.632568 708.977722,617.226685 
	C705.914062,616.441833 702.812805,615.755615 699.819458,614.752869 
	C689.371460,611.252930 686.789795,602.596069 693.641541,594.039917 
	C695.929932,591.182312 698.388306,588.449768 700.901184,585.784790 
	C715.760620,570.025879 730.658020,554.302795 745.547424,538.572144 
	C746.234131,537.846741 746.939453,537.134216 747.682861,536.467834 
	C754.876770,530.019165 762.333740,530.949585 767.344543,539.292175 
	C771.902161,546.880188 774.742859,555.291443 778.050781,563.470459 
	C784.107544,578.445862 789.998718,593.482422 794.751221,608.931946 
	C795.774231,612.257446 796.767395,615.689453 797.039185,619.130432 
	C797.825439,629.087952 790.320068,635.690430 780.494263,633.805786 
	C774.449036,632.646179 768.444946,631.241272 762.472046,629.747925 
	C759.054443,628.893494 756.970947,629.553284 755.366333,633.056335 
	C726.778870,695.467285 680.784302,740.062256 617.812744,767.297363 
	C602.674255,773.844849 587.176208,779.422546 571.706970,785.083008 
	C555.375000,791.059082 540.872620,799.951721 528.050232,811.652405 
	C525.836243,813.672791 523.667236,815.753662 521.339661,817.636292 
	C514.998474,822.765442 510.605164,822.671692 504.533295,817.248596 
	C496.580109,810.145264 488.586456,803.152893 479.608612,797.276428 
	C464.628326,787.471130 447.643768,782.399475 431.163849,776.168579 
	C397.090149,763.285645 365.231445,746.605774 337.450134,722.735718 
	C309.322540,698.567871 287.953217,669.322937 272.366089,635.778015 
	C269.032440,628.603638 268.968597,628.462158 261.071014,630.317261 
	C255.726593,631.572693 250.376236,632.841614 244.975861,633.811035 
	C236.607285,635.313232 230.174332,630.032471 229.715912,621.506653 
	C229.553925,618.494080 229.770264,615.519531 230.672775,612.609192 
	C238.129990,588.561829 247.195908,565.118958 257.473511,542.152771 
	C260.837524,534.635681 265.028503,532.123047 271.152435,532.672791 
	C275.297821,533.044861 278.232330,535.597595 280.842041,538.372131 
	C297.962097,556.573853 315.040375,574.815796 332.003662,593.163635 
	C339.622559,601.404419 337.026947,611.134094 326.433380,614.724243 
	C323.919159,615.576294 321.281006,616.057434 318.712067,616.754333 
	C312.628021,618.404846 312.272980,619.102844 315.348724,624.434509 
	C321.024048,634.272461 327.649353,643.454895 335.014984,652.089661 
	C357.227264,678.129272 383.982239,698.034363 415.514221,711.434570 
	C427.826263,716.666870 440.575409,720.390991 453.932312,721.604553 
	C471.479858,723.198914 486.622162,709.103455 486.723999,690.873230 
	C486.895264,660.211304 486.799683,629.547791 486.802155,598.884949 
	C486.807648,531.559937 486.809631,464.234985 486.797424,396.910004 
	C486.795959,388.841095 485.959106,388.140900 477.928833,388.426788 
	C470.938507,388.675659 463.937958,389.026642 456.950562,388.890625 
	C441.237793,388.584747 425.695709,389.967499 410.235291,392.693115 
	C400.327667,394.439819 391.898712,389.847168 388.038086,380.612823 
	C385.097260,373.578522 384.921539,366.320831 387.492798,359.142273 
	C390.942291,349.511932 399.393616,344.088196 409.499878,346.025940 
	C432.746490,350.483215 456.199677,350.268616 479.677917,350.073669 
	C486.426300,350.017639 486.734070,349.681366 486.776093,342.995331 
	C486.821075,335.830627 486.813232,328.665588 486.828186,321.000977 
M540.662598,254.141205 
	C548.536438,242.878754 550.135376,230.932358 544.455933,218.257996 
	C537.676270,203.128403 520.660095,195.077286 504.103027,199.463486 
	C486.908051,204.018677 478.244019,218.255997 478.520752,234.485291 
	C478.762115,248.640656 489.546783,262.352905 502.075958,266.288116 
	C516.198120,270.723694 530.266907,266.455048 540.662598,254.141205 
z"/>
</svg>