<svg version="1.1" id="Layer_1" xmlns="http://www.w3.org/2000/svg" xmlns:xlink="http://www.w3.org/1999/xlink" x="0px" y="0px"
	 width="100%" viewBox="217.315 193.846 593.251 593.251" enable-background="new 217.315 193.846 593.251 593.251" xml:space="preserve">
<path fill="#000000" opacity="1.000000" stroke="none" 
	d="
M566.857788,744.140320 
	C563.999817,745.865906 561.234680,746.186462 558.349548,746.182190 
	C529.018494,746.138855 499.687378,746.158386 470.356415,746.095398 
	C459.561432,746.072266 454.984283,741.346252 454.748566,730.506104 
	C454.531281,720.515991 454.061890,710.530823 453.906433,700.540344 
	C453.857483,697.392944 452.718811,695.705078 449.685028,694.744019 
	C437.426025,690.861023 425.649658,685.794373 414.423676,679.520813 
	C411.942047,678.134033 410.207550,678.539368 408.172668,680.266235 
	C400.427856,686.838806 392.567078,693.274536 384.782257,699.800293 
	C375.906830,707.240356 370.535492,706.996338 362.365509,698.804749 
	C343.066650,679.454956 323.751190,660.121765 304.428711,640.795532 
	C297.597687,633.963196 297.271698,627.460754 303.605713,620.212952 
	C310.512390,612.309937 317.431702,604.414612 324.518585,596.674377 
	C326.651733,594.344482 327.027740,592.350830 325.523804,589.567871 
	C319.569061,578.549072 314.712769,567.045166 311.003326,555.080139 
	C310.179230,552.422119 308.638031,551.403503 305.942749,551.253967 
	C295.476624,550.673279 285.022552,549.874329 274.556396,549.293518 
	C264.847382,548.754761 259.831360,543.788513 259.812775,534.128357 
	C259.757629,505.464081 259.757935,476.799561 259.796417,448.135223 
	C259.807678,439.750977 263.868652,435.046692 272.337189,434.299042 
	C281.784882,433.464966 291.236298,432.599182 300.758270,432.597382 
	C309.476807,432.595703 309.698242,432.208862 312.316559,424.120087 
	C315.711121,413.633179 319.759583,403.422302 325.307312,393.880829 
	C327.122009,390.759766 326.717346,388.566742 324.276672,385.943146 
	C317.242737,378.382080 310.439758,370.604675 303.604340,362.860779 
	C296.926636,355.295502 297.128784,348.984802 304.115692,341.917297 
	C323.796295,322.009796 343.440338,302.066040 363.150909,282.188263 
	C370.256317,275.022583 376.437042,274.908569 384.127533,281.452637 
	C391.993347,288.145905 399.959869,294.721558 407.779053,301.468353 
	C410.106781,303.476868 412.144684,303.858124 414.943573,302.324890 
	C425.626404,296.472809 436.744446,291.547577 448.403931,287.994385 
	C452.307770,286.804718 454.016724,284.972443 453.998383,280.649841 
	C453.953857,270.164093 454.476624,259.676331 454.744690,249.188736 
	C454.974579,240.194702 460.187561,234.825790 469.143677,234.806305 
	C499.141205,234.741074 529.139038,234.748138 559.136597,234.801041 
	C567.749390,234.816223 573.029968,240.196716 573.252258,248.909729 
	C573.532654,259.899231 573.846191,270.888611 573.999756,281.880096 
	C574.039551,284.723450 574.814209,286.510925 577.755066,287.430908 
	C590.336914,291.366821 602.412292,296.544708 613.988586,302.850555 
	C616.387573,304.157318 618.035706,303.227509 619.801270,301.724335 
	C627.792908,294.920288 635.840576,288.182098 643.830322,281.375824 
	C651.542603,274.805908 657.653503,274.931305 664.841980,282.124939 
	C684.747192,302.044312 704.613953,322.002258 724.456604,341.983978 
	C730.805542,348.377350 731.121338,355.124023 725.241211,361.901093 
	C718.147766,370.076385 710.933472,378.151642 703.587585,386.100159 
	C701.445251,388.418274 701.030457,390.339325 702.521606,393.161743 
	C708.371277,404.233917 713.046753,415.816254 716.740784,427.775330 
	C717.599121,430.553802 718.955994,431.880127 721.964233,432.025085 
	C732.104431,432.513824 742.229187,433.321289 752.368896,433.822357 
	C763.654907,434.380035 768.082825,438.748932 768.093933,449.911957 
	C768.121277,477.409546 768.120972,504.907288 768.070129,532.404846 
	C768.047852,544.454224 763.533875,548.852112 751.572693,549.387878 
	C741.431458,549.842163 731.311890,550.760925 721.175598,551.352295 
	C718.798035,551.490967 717.646973,552.520569 716.931030,554.730774 
	C713.076721,566.630981 708.481506,578.245728 702.555298,589.273193 
	C700.748291,592.635864 701.961792,594.865784 704.118591,597.246460 
	C710.828979,604.653503 717.434204,612.156372 724.182373,619.528625 
	C730.768860,626.724304 730.717468,633.548462 723.761353,640.506226 
	C703.858765,660.413513 683.936646,680.301331 664.017334,700.191833 
	C657.715698,706.484253 651.399597,706.884827 644.535156,701.259521 
	C636.287292,694.500732 628.050354,687.723206 619.989136,680.745239 
	C617.420593,678.521851 615.330627,678.340820 612.440247,680.002380 
	C601.571777,686.250183 589.980164,690.928345 578.093994,694.792786 
	C574.867432,695.841797 574.137756,697.509033 573.884888,700.500854 
	C573.013123,710.817627 573.452515,721.153137 573.140747,731.475037 
	C572.988708,736.510376 571.875549,741.072815 566.857788,744.140320 
M348.206421,333.705658 
	C342.926666,339.027191 337.700867,344.403900 332.342896,349.645447 
	C329.901276,352.034027 329.440857,353.854462 332.105621,356.672913 
	C338.625366,363.568634 344.768494,370.820465 351.060699,377.931213 
	C356.459351,384.032196 356.955597,388.988739 352.795013,396.107727 
	C343.923187,411.288177 337.058685,427.302917 332.644562,444.343079 
	C330.180634,453.854767 326.192200,456.921936 316.518921,457.355072 
	C307.382050,457.764130 298.262360,458.545715 289.130249,459.080017 
	C286.473053,459.235504 285.268707,460.347839 285.275299,463.100372 
	C285.321136,482.263519 285.307037,501.426849 285.263916,520.590027 
	C285.257965,523.238586 286.242950,524.763306 289.037994,524.639099 
	C299.246399,524.185120 309.260162,526.534058 319.425446,526.716919 
	C325.942566,526.834106 330.355255,529.850037 331.895325,536.148865 
	C336.365234,554.431030 343.751801,571.429199 353.273651,587.610718 
	C357.014984,593.968811 356.066040,599.444336 351.104523,604.967834 
	C345.206390,611.533936 339.400787,618.190857 333.298126,624.562256 
	C330.069519,627.933044 330.110321,630.396973 333.483185,633.698792 
	C346.579102,646.518860 359.459717,659.558899 372.436493,672.500854 
	C373.234497,673.296814 373.957153,674.334229 375.736145,674.104187 
	C383.416412,667.725098 391.310425,661.077148 399.306946,654.554932 
	C406.051453,649.053833 411.203339,648.608704 418.579437,652.873047 
	C434.220795,661.915649 450.527679,669.251160 468.264771,673.213806 
	C475.569702,674.845886 479.138824,679.765686 479.323608,687.226807 
	C479.554413,696.547363 479.964752,705.864441 480.096375,715.185852 
	C480.143158,718.500366 481.222534,720.056946 484.730499,720.039368 
	C504.226593,719.941284 523.723450,719.910645 543.219604,719.984558 
	C546.756958,719.997925 547.757019,718.498535 547.802002,715.168396 
	C547.928040,705.845215 548.388855,696.527161 548.628662,687.204712 
	C548.832825,679.271179 552.708130,674.505920 560.457397,672.868591 
	C561.916992,672.560242 563.385010,672.274353 564.822266,671.880066 
	C580.345764,667.622864 594.819885,660.946716 608.739624,652.946716 
	C616.497925,648.487915 621.614685,648.960815 628.420166,654.516785 
	C635.516785,660.310364 642.651978,666.062622 649.582520,672.050293 
	C651.936584,674.084106 653.531250,674.377197 655.817383,672.044189 
	C668.991760,658.599487 682.231812,645.218384 695.540283,631.906433 
	C697.728821,629.717285 697.436646,628.180054 695.486511,626.067261 
	C689.385559,619.457275 683.541382,612.609253 677.408630,606.029785 
	C671.856384,600.073181 670.702698,594.011658 674.834839,586.990356 
	C684.193909,571.087769 691.154907,554.241272 695.724060,536.371033 
	C697.235107,530.461365 701.561401,527.111328 707.533508,526.675842 
	C717.161377,525.973877 726.743652,524.614746 736.421570,524.640259 
	C740.290710,524.650513 742.071533,523.073120 742.039612,518.911255 
	C741.898987,500.582581 741.952576,482.251984 742.034729,463.922516 
	C742.049744,460.571930 740.817810,459.252045 737.364319,459.095093 
	C727.891968,458.664581 718.436768,457.862915 708.972168,457.249023 
	C702.137207,456.805634 697.319153,453.282318 695.803772,447.016449 
	C691.501892,429.228912 684.404602,412.612396 675.316040,396.782074 
	C670.888794,389.070801 671.510620,383.833710 677.352539,377.230072 
	C683.312927,370.492523 689.165283,363.654541 695.286316,357.066162 
	C697.866272,354.289215 697.984497,352.362518 695.208740,349.590210 
	C682.714355,337.111267 670.420654,324.431488 657.996765,311.881409 
	C656.528137,310.397858 655.319214,308.446503 652.538391,307.888092 
	C645.068726,314.150848 637.437012,320.566284 629.786560,326.959412 
	C621.216309,334.121185 617.402344,334.546692 607.747192,328.840454 
	C592.581482,319.877411 576.555481,313.127197 559.372986,309.111420 
	C552.335510,307.466675 548.814514,302.669464 548.650269,295.447266 
	C548.423096,285.457703 548.009705,275.471771 547.851990,265.481506 
	C547.801941,262.314178 546.669373,261.024597 543.426086,261.036469 
	C523.929871,261.107880 504.432800,261.108398 484.936829,260.996674 
	C481.150696,260.974976 480.119934,262.676880 480.078461,266.157837 
	C479.965332,275.648804 479.534515,285.135529 479.339478,294.626190 
	C479.178589,302.455383 475.760101,307.443695 468.292175,309.115417 
	C450.375092,313.126343 433.917572,320.540649 418.160889,329.748718 
	C410.731995,334.090118 406.059814,333.689087 399.471588,328.182434 
	C392.696869,322.519928 385.870819,316.905090 379.344696,310.964630 
	C376.023468,307.941467 373.836975,307.452789 370.464600,311.140015 
	C363.498138,318.756836 355.988007,325.876373 348.206421,333.705658 
z"/>
<path fill="#000000" opacity="1.000000" stroke="none" 
	d="
M383.655273,508.152039 
	C379.403748,471.230255 389.149414,438.716675 412.033020,410.257812 
	C431.747314,385.740479 457.245392,369.794373 488.144989,364.001434 
	C528.270630,356.478912 564.968079,365.321472 596.840332,391.223267 
	C622.684998,412.226562 638.544006,439.445831 643.560608,472.454529 
	C649.262939,509.975464 640.088318,543.927490 616.693604,573.719055 
	C594.323425,602.206055 564.711853,618.871887 528.819153,622.805542 
	C471.402832,629.098022 423.514587,599.685486 399.089050,555.765137 
	C390.904297,541.047852 385.709961,525.337341 383.655273,508.152039 
M609.027893,537.578369 
	C619.571045,515.464294 622.639160,492.491180 616.672791,468.579163 
	C598.680481,396.468811 517.195679,364.685730 455.310883,405.164612 
	C412.815125,432.961121 394.130127,491.271027 420.182556,540.580078 
	C443.898468,585.466797 494.036865,606.399780 540.549988,594.143616 
	C571.554626,585.973877 594.154785,566.839844 609.027893,537.578369 
z"/>
<path fill="#000000" opacity="1.000000" stroke="none" 
	d="
M479.074097,504.523956 
	C471.899963,477.456879 491.378815,456.945282 514.639526,456.987671 
	C532.497681,457.020233 548.052490,471.511780 550.149231,489.474915 
	C552.226562,507.273132 540.307678,524.515381 522.795349,529.045898 
	C505.372742,533.553284 487.262726,524.441101 480.342651,507.684357 
	C479.961792,506.762085 479.591064,505.835663 479.074097,504.523956 
M511.185211,504.564301 
	C512.177307,504.626068 513.175049,504.788239 514.160522,504.732513 
	C518.906311,504.463989 522.569519,502.183350 524.153748,497.774841 
	C525.680481,493.526520 525.255981,489.137238 521.640137,485.841003 
	C518.038574,482.557770 513.787292,481.558807 509.218384,483.630035 
	C505.104706,485.494965 502.597260,488.884277 502.557434,493.360413 
	C502.509796,498.704987 505.547943,502.312683 511.185211,504.564301 
z"/>
</svg>