<svg version="1.1" id="Layer_1" xmlns="http://www.w3.org/2000/svg" xmlns:xlink="http://www.w3.org/1999/xlink" x="0px" y="0px"
	 width="100%" viewBox="321.5 272.979 381.766 381.766" enable-background="new 321.5 272.979 381.766 381.766" xml:space="preserve">
<path fill="#000000" opacity="1.000000" stroke="none" 
	d="
M605.671143,343.379944 
	C621.751099,364.484406 629.129456,388.061523 628.086853,414.123383 
	C627.738403,422.832977 628.503174,428.192688 638.972351,431.575592 
	C655.422607,436.891144 663.187073,450.496948 663.215149,468.004120 
	C663.245056,486.668396 663.245544,505.332825 663.207642,523.997070 
	C663.173218,540.917969 655.405334,552.279297 639.606689,558.630615 
	C637.631775,559.424622 635.568115,559.773315 635.147034,562.612915 
	C632.564270,580.030884 620.656189,589.719299 606.034058,596.857605 
	C588.439575,605.447021 569.805969,610.094421 550.176575,610.209045 
	C546.603638,610.229919 544.551514,611.337280 542.591736,614.426575 
	C534.844604,626.638794 522.909973,629.705994 509.509186,627.968384 
	C496.419464,626.271057 488.282898,618.478577 485.329681,606.012451 
	C483.112030,596.651306 488.106262,585.310547 497.303406,580.059631 
	C508.664093,573.573364 520.435974,573.423157 532.224609,579.045593 
	C535.409363,580.564575 538.873169,582.506897 540.206665,585.636536 
	C543.852051,594.192322 550.928711,593.472595 557.744812,592.528992 
	C573.474548,590.351379 588.817566,586.649170 602.720947,578.490112 
	C606.182190,576.458862 609.504333,574.229675 612.214966,571.230713 
	C614.465759,568.740417 616.366882,566.048279 616.436096,562.420227 
	C614.260498,560.372070 611.634033,561.298218 609.270996,561.299683 
	C589.077393,561.312378 575.821594,548.041260 575.854858,527.793518 
	C575.890747,505.963013 575.851501,484.132446 575.876404,462.301941 
	C575.899292,442.219116 586.668640,430.113861 606.522461,427.882050 
	C608.626099,427.645599 610.512817,427.606781 610.653259,424.756073 
	C611.763367,402.226196 609.611450,380.383392 596.568054,361.037567 
	C579.397705,335.570648 555.245605,321.625519 524.862305,318.148926 
	C501.813446,315.511597 479.916168,319.300568 459.949493,331.183716 
	C431.091858,348.358246 415.226837,373.685730 414.198883,407.672882 
	C414.042786,412.834198 414.246918,418.005707 414.141388,423.169556 
	C414.081390,426.104004 414.800446,427.815033 418.233582,427.970306 
	C436.815979,428.811005 448.951172,444.675507 448.397888,462.314728 
	C447.703369,484.456848 448.258453,506.637329 448.220032,528.801147 
	C448.187134,547.779541 434.697754,561.343567 415.805969,561.203613 
	C407.497711,561.142090 399.165192,561.914795 390.879242,560.331726 
	C372.766724,556.871155 361.697876,543.703064 361.678772,525.285034 
	C361.658875,506.120758 362.112793,486.943451 361.547974,467.795807 
	C360.960358,447.874725 373.932159,433.672333 391.834900,429.047729 
	C395.896759,427.998505 396.821838,426.279388 396.716766,422.594757 
	C396.244934,406.051697 396.825775,389.661896 402.688507,373.833130 
	C413.416962,344.867645 432.787842,323.983551 460.624969,310.799988 
	C483.979858,299.739288 508.709137,296.962555 533.772888,301.184357 
	C562.633362,306.045624 586.961365,319.887329 605.671143,343.379944 
M623.189392,543.700562 
	C624.186035,543.635864 625.187988,543.616211 626.178528,543.499756 
	C639.941772,541.880859 645.671021,535.396606 645.202454,521.811157 
	C644.588867,504.018158 645.081055,486.184662 645.206299,468.369354 
	C645.290039,456.448578 639.886292,449.308868 628.428650,446.305481 
	C622.008423,444.622589 615.501160,445.467316 609.036743,445.412720 
	C599.966003,445.336090 593.523499,451.132599 593.429749,460.072601 
	C593.186768,483.229858 593.194275,506.392761 593.418640,529.550354 
	C593.503662,538.332214 599.403809,543.583435 608.254944,543.700928 
	C612.919434,543.762817 617.585327,543.708008 623.189392,543.700562 
M379.354736,529.736633 
	C381.017242,537.346680 386.216522,541.169739 393.409882,542.843201 
	C400.982452,544.604919 408.673279,543.632141 416.304352,543.677490 
	C425.172546,543.730225 430.655273,538.210693 430.693451,529.314392 
	C430.792725,506.172302 430.788300,483.029236 430.685364,459.887207 
	C430.648285,451.553253 424.988678,445.778809 416.625366,445.404236 
	C411.308472,445.166077 405.957855,445.108521 400.647491,445.411163 
	C388.093536,446.126648 379.255463,454.244385 379.177582,465.445953 
	C379.030548,486.587524 379.211823,507.731415 379.354736,529.736633 
M502.504761,600.815918 
	C503.389648,606.931091 506.327515,609.631165 513.089966,610.544495 
	C519.278198,611.380249 525.931946,608.698486 527.921997,604.615112 
	C529.364624,601.655090 528.506836,599.080261 526.522278,596.824951 
	C520.790588,590.311523 506.633026,592.290466 502.504761,600.815918 
z"/>
<path fill="#000000" opacity="1.000000" stroke="none" 
	d="
M531.340942,476.016907 
	C531.349243,485.335114 531.405334,494.156982 531.346924,502.978088 
	C531.298340,510.311554 527.655640,514.010132 520.285217,514.183533 
	C515.294617,514.301025 510.296875,514.292847 505.306000,514.179443 
	C498.484100,514.024597 494.752075,510.362946 494.702148,503.660706 
	C494.611633,491.510681 494.742249,479.358765 494.617981,467.209320 
	C494.564606,461.988708 496.890289,458.500885 501.728088,457.061859 
	C504.419525,456.261292 505.020538,454.806824 505.000366,452.371490 
	C504.957672,447.212616 504.938843,442.047699 505.140686,436.894287 
	C505.360077,431.292358 508.113525,428.187073 512.639465,428.018494 
	C517.039734,427.854584 520.319885,430.964447 520.733826,436.373260 
	C521.114075,441.340759 520.983826,446.350555 520.994446,451.341888 
	C521.000610,454.225555 521.592529,456.266174 524.878479,457.350739 
	C529.261841,458.797607 531.313904,462.380951 531.331604,467.031586 
	C531.342346,469.861115 531.337219,472.690704 531.340942,476.016907 
M513.669067,491.002380 
	C513.630005,485.867096 514.244507,480.693817 512.802246,475.623596 
	C512.341980,480.891205 512.306335,486.148743 512.379272,491.404816 
	C512.390564,492.223297 512.987427,492.519623 513.669067,491.002380 
z"/>
</svg>