<svg version="1.1" id="Layer_1" xmlns="http://www.w3.org/2000/svg" xmlns:xlink="http://www.w3.org/1999/xlink" x="0px" y="0px"
	 width="100%" viewBox="230.604 207.497 535.202 535.202" enable-background="new 230.604 207.497 535.202 535.202" xml:space="preserve">
<path fill="#000000" opacity="1.000000" stroke="none" 
	d="
M558.757812,458.237000 
	C537.573486,440.346741 513.909241,435.256927 487.554535,442.524139 
	C485.056549,443.212952 482.408142,444.891296 481.199554,440.744080 
	C474.904205,419.141327 463.570831,399.851746 453.357117,380.036896 
	C445.197266,364.206635 439.351471,347.762024 439.586884,329.518433 
	C439.999573,297.535187 462.681030,269.144836 493.463440,260.503387 
	C541.693787,246.963806 592.946533,278.907288 606.853149,323.965607 
	C613.920166,346.863220 613.406311,369.492310 607.503235,392.348083 
	C600.810059,418.263245 588.260498,441.143066 571.575439,461.894592 
	C567.677002,466.743164 567.275024,466.782288 562.918823,462.347260 
	C561.635254,461.040466 560.321960,459.762909 558.757812,458.237000 
M492.620575,371.094727 
	C484.108124,371.106567 480.802429,372.877899 479.582520,378.274261 
	C478.823395,381.632202 479.669220,384.734253 482.468231,386.753754 
	C486.657227,389.776123 490.092560,394.543152 496.282867,393.479797 
	C496.745605,393.400330 497.215485,393.091705 497.583679,392.775177 
	C500.479736,390.285797 503.431366,387.852875 506.207184,385.234344 
	C508.619934,382.958282 509.164856,380.189850 507.858276,377.023590 
	C506.477264,373.677063 504.341400,371.364288 500.543549,371.163177 
	C498.220398,371.040100 495.886780,371.114014 492.620575,371.094727 
z"/>
<path fill="#000000" opacity="1.000000" stroke="none" 
	d="
M368.139496,500.794434 
	C382.498535,498.608917 396.389557,498.677429 410.347229,500.624695 
	C417.294250,501.593872 424.073883,503.143738 430.850830,504.821014 
	C433.240479,505.412415 433.852692,506.963562 433.664307,509.320679 
	C431.888916,531.537415 438.672577,550.996094 452.837097,568.007996 
	C454.290192,569.753174 454.965698,571.269958 453.320343,573.270569 
	C438.137451,591.731140 428.708740,613.545105 417.650726,634.418518 
	C412.982056,643.231140 408.792694,652.330261 402.630524,660.301208 
	C370.769501,701.514526 308.540375,700.661804 280.372833,653.727600 
	C259.986359,619.758484 264.287109,577.000916 290.109436,545.398621 
	C310.322327,520.661316 336.743408,506.824219 368.139496,500.794434 
M341.472382,642.080750 
	C342.547913,635.692993 337.477783,633.223633 333.751617,629.836243 
	C328.116425,624.713318 315.857330,627.134460 312.084656,629.867920 
	C308.865723,632.200256 309.383850,639.327271 313.083435,646.604858 
	C313.158508,646.752563 313.213165,646.911011 313.293060,647.055725 
	C316.218201,652.357300 320.954987,654.701294 327.022095,653.851562 
	C334.296783,652.832825 340.064636,648.395142 341.472382,642.080750 
z"/>
<path fill="#000000" opacity="1.000000" stroke="none" 
	d="
M615.222351,689.041504 
	C589.869934,681.383667 570.311340,666.127930 553.882141,646.345337 
	C541.347290,631.251892 531.052612,614.799744 523.031921,596.884216 
	C521.271423,592.951904 521.836426,591.096436 526.081482,589.496826 
	C552.608582,579.501099 570.339600,561.175232 577.975037,533.588562 
	C578.681274,531.036804 579.915710,530.070862 582.636536,530.521423 
	C594.285400,532.450256 605.972107,534.151062 617.619324,536.089417 
	C634.668335,538.926636 651.753296,541.595459 668.719299,544.872864 
	C702.005981,551.302856 728.541626,577.838745 728.891724,613.541870 
	C729.140137,638.878296 717.150024,658.876892 697.122375,674.037537 
	C680.633240,686.519531 661.760803,692.384949 641.245605,692.818359 
	C632.580872,693.001404 624.009583,691.422546 615.222351,689.041504 
z"/>
<path fill="#000000" opacity="1.000000" stroke="none" 
	d="
M465.184753,552.776855 
	C436.472687,519.181030 453.409790,468.131042 496.464447,459.237091 
	C532.744385,451.742645 561.313721,479.539337 564.452026,509.756378 
	C567.891418,542.872559 539.526001,573.903503 505.216797,572.308228 
	C489.290527,571.567688 476.026001,564.962280 465.184753,552.776855 
z"/>
</svg>