<svg version="1.1" id="Layer_1" xmlns="http://www.w3.org/2000/svg" xmlns:xlink="http://www.w3.org/1999/xlink" x="0px" y="0px"
	 width="100%" viewBox="158.449 115.454 713.727 713.727" enable-background="new 158.449 115.454 713.727 713.727" xml:space="preserve">
<path fill="#000000" opacity="1.000000" stroke="none" 
	d="
M259.160980,773.230469 
	C234.427475,772.177979 215.533859,757.989502 209.044708,736.011780 
	C207.749023,731.623596 207.672180,727.140564 207.672180,722.638489 
	C207.672180,709.140137 207.667526,695.641663 207.705078,682.143372 
	C207.767105,659.846375 215.499023,640.230713 229.994217,623.658569 
	C261.690216,587.421021 293.870544,551.607117 325.856018,515.622803 
	C338.583252,501.304260 350.976257,486.665619 364.206543,472.827759 
	C370.085510,466.678864 371.139740,460.390228 370.404816,452.492767 
	C367.378357,419.971588 367.815643,387.650055 377.400787,355.997772 
	C390.194092,313.751556 413.943390,278.954529 448.199341,251.222198 
	C471.966339,231.981293 499.036774,219.568497 528.788818,213.275726 
	C546.251953,209.582169 564.031128,209.246948 581.934448,210.365723 
	C606.979065,211.930786 630.351929,218.665665 652.386353,230.416183 
	C656.346985,232.528305 660.293274,234.720154 664.001892,237.235336 
	C666.971802,239.249481 669.087830,238.683121 671.429565,236.322922 
	C686.919250,220.711014 702.568115,205.255890 717.958191,189.546951 
	C726.269836,181.063141 735.066162,173.881897 747.370544,171.993835 
	C763.028076,169.591293 776.513306,174.222015 787.867310,184.576126 
	C796.092041,192.076721 804.103821,200.052750 810.894714,208.834351 
	C825.932495,228.280594 825.725830,249.697556 816.754272,271.635742 
	C813.735413,279.017822 808.628052,284.809448 802.926086,290.359772 
	C789.677551,303.256012 776.878540,316.612854 763.829834,329.715729 
	C734.672729,358.993683 705.483215,388.239380 676.286011,417.477386 
	C669.702087,424.070526 668.343811,424.068573 661.576599,417.610992 
	C658.927429,415.083069 656.350159,412.472748 653.850159,409.797119 
	C649.590332,405.237946 649.539978,402.121674 653.880493,397.717529 
	C665.343628,386.085999 676.907532,374.553741 688.410034,362.960846 
	C721.389893,329.721710 754.394653,296.507080 787.308044,263.202148 
	C795.610291,254.801102 795.465759,236.186493 786.886475,226.721375 
	C780.403198,219.568634 773.530457,212.743271 766.515503,206.105621 
	C759.882568,199.829407 749.383606,200.497284 742.639160,207.236069 
	C699.372986,250.466202 656.086731,293.676422 612.920288,337.006012 
	C608.889893,341.051697 604.759399,342.156311 599.075684,341.782318 
	C587.897339,341.046814 576.382385,338.737183 565.668579,344.271423 
	C554.706238,349.934052 548.958069,359.234161 547.939758,371.403839 
	C546.778137,385.285950 551.363647,397.804810 558.416443,409.318237 
	C574.060181,434.855957 595.026917,454.529694 623.291504,465.563568 
	C642.613770,473.106506 659.925415,470.063782 675.491211,455.859070 
	C701.958557,431.706177 727.785950,406.890045 753.510803,381.959442 
	C759.317932,376.331543 763.070862,376.421539 768.916138,381.987030 
	C782.442078,394.865723 792.867554,409.602264 797.333252,428.095978 
	C802.816223,450.802734 798.765564,472.265289 787.990479,492.373932 
	C767.179932,531.210754 739.965881,564.853394 703.730042,590.391052 
	C678.792358,607.966187 650.848938,618.051697 620.383789,621.438965 
	C592.343750,624.556519 564.533447,621.871582 536.667542,619.540405 
	C529.367126,618.929688 522.056946,618.432800 514.748840,617.917297 
	C510.405853,617.610962 506.915466,618.852600 503.546112,622.052856 
	C476.614349,647.632935 449.399841,672.911682 422.789337,698.834717 
	C403.941589,717.195496 384.894897,735.367981 365.483307,753.128601 
	C351.239197,766.161255 334.163147,773.125061 314.633728,773.220154 
	C296.302765,773.309387 277.970947,773.234680 259.160980,773.230469 
M711.355835,462.840088 
	C705.891296,467.974731 700.473938,473.160736 694.954224,478.235291 
	C668.903259,502.185028 637.238098,506.734314 605.201111,491.642670 
	C576.703613,478.218323 554.030457,458.205933 536.745667,432.063141 
	C524.176270,413.052185 516.159180,392.524384 517.769897,369.157867 
	C519.491272,344.186676 537.279480,321.613678 561.042542,313.682739 
	C571.443848,310.211273 582.056458,310.740204 592.687012,310.754730 
	C595.459045,310.758514 597.821411,310.388641 599.920349,308.244629 
	C613.904846,293.960144 627.987854,279.772278 642.018005,265.532410 
	C643.028992,264.506256 644.428833,263.639740 644.167847,261.501709 
	C643.125244,260.777924 641.995544,259.760498 640.681702,259.121765 
	C634.842468,256.282959 629.154419,252.952774 623.045837,250.876801 
	C567.885071,232.130569 515.783264,238.796692 469.054657,273.560699 
	C422.825867,307.952820 401.267426,356.139679 398.251892,413.069885 
	C397.377014,429.586426 399.512665,446.000488 400.547699,462.445862 
	C401.124359,471.608795 398.317780,479.493408 392.276550,486.264191 
	C370.210419,510.995026 348.046753,535.639160 326.037628,560.420532 
	C302.150787,587.316101 278.529083,614.448181 254.523178,641.236450 
	C243.446823,653.596497 237.536377,667.801880 237.220856,684.265198 
	C236.975052,697.092285 237.246796,709.928833 237.229202,722.761047 
	C237.222672,727.523254 238.984116,731.491211 242.148987,734.955078 
	C246.771851,740.014771 252.450775,742.745605 259.331573,742.760986 
	C277.163788,742.801025 295.011505,742.347229 312.823456,742.955505 
	C326.698212,743.429321 337.801208,738.149109 347.442352,729.002686 
	C393.497345,685.310730 439.517975,641.582275 485.429443,597.739685 
	C493.248352,590.273010 502.403625,586.573608 512.942871,586.823364 
	C521.574524,587.028015 530.187927,588.193726 538.798889,589.040588 
	C564.644531,591.582703 590.386902,594.061951 616.488037,591.038025 
	C644.703918,587.768982 670.241211,578.331970 692.791382,561.329590 
	C723.015259,538.541382 745.328918,509.003418 762.829102,475.778351 
	C772.070312,458.233459 773.152161,440.148560 763.077026,422.253082 
	C760.380554,417.463776 759.795593,417.214691 755.855957,420.900513 
	C741.140198,434.668335 726.509216,448.526794 711.355835,462.840088 
M686.019104,388.740509 
	C685.910095,388.463043 685.830444,388.167023 685.673889,387.919678 
	C685.628479,387.847931 685.324158,387.853455 685.203491,387.928284 
	C679.109131,391.707672 674.604980,397.250519 669.550232,402.175323 
	C669.010376,402.701294 668.678955,404.009186 669.289917,404.342590 
	C674.893005,399.197998 680.333069,394.203064 686.019104,388.740509 
z"/>
<path fill="#000000" opacity="1.000000" stroke="none" 
	d="
M489.075806,682.078918 
	C493.674042,677.279602 499.069061,675.980408 505.211639,675.984253 
	C593.542236,676.039124 681.872803,675.998230 770.203430,675.949524 
	C772.479858,675.948303 774.874023,676.458069 777.087402,675.049622 
	C777.957458,672.464966 776.241760,669.906921 777.114990,667.221924 
	C778.893677,661.753235 785.453918,657.140869 791.480713,657.494263 
	C797.761292,657.862488 802.996826,662.421692 803.583435,668.785400 
	C804.148132,674.910767 804.360779,681.109192 804.146667,687.255310 
	C803.891357,694.583435 799.451355,699.499084 792.084351,701.263123 
	C784.453857,703.090210 776.693970,704.146301 768.840698,704.146179 
	C675.509460,704.145020 582.178284,704.112854 488.847076,704.077454 
	C481.796783,704.074768 480.905579,702.931396 482.264709,696.137207 
	C483.296722,690.978333 485.204376,686.254578 489.075806,682.078918 
z"/>
<path fill="#000000" opacity="1.000000" stroke="none" 
	d="
M315.130219,637.266174 
	C308.526550,635.546875 304.820801,630.701965 301.190887,626.016846 
	C299.200714,623.448120 299.660858,620.423157 302.172516,617.882629 
	C314.225372,605.691162 326.210083,593.432373 338.245850,581.223999 
	C341.349152,578.076233 344.646881,577.913696 347.894806,581.014465 
	C351.020538,583.998596 354.203949,586.940857 357.111145,590.130188 
	C360.009521,593.309814 360.045807,596.627869 356.811157,599.817200 
	C344.967773,611.494568 333.172180,623.220459 321.336609,634.905762 
	C319.754852,636.467346 317.904022,637.552185 315.130219,637.266174 
z"/>
</svg>