<svg version="1.1" id="Layer_1" xmlns="http://www.w3.org/2000/svg" xmlns:xlink="http://www.w3.org/1999/xlink" x="0px" y="0px"
	 width="100%" viewBox="242.79 214.252 514.503 514.503" enable-background="new 242.79 214.252 514.503 514.503" xml:space="preserve">
<path fill="#000000" opacity="1.000000" stroke="none" 
	d="
M461.526184,514.710205 
	C454.678040,515.364136 449.041565,512.935791 443.570770,510.011200 
	C435.436066,505.662537 426.973663,502.487061 417.752380,501.143646 
	C403.789825,499.109528 390.707733,501.859985 378.934418,509.040924 
	C367.179169,516.210876 356.267151,516.776794 344.277557,509.732513 
	C334.755707,504.138123 324.129608,501.176849 312.988617,500.205872 
	C305.912048,499.589142 299.459473,492.157593 298.964203,484.728668 
	C298.491913,477.644653 304.298187,470.870148 312.488861,469.015717 
	C356.268829,459.103546 400.059814,449.240204 443.830170,439.285767 
	C476.089386,431.949280 508.288788,424.346832 540.577881,417.145599 
	C568.149109,410.996582 595.798401,405.142975 623.761108,401.042236 
	C646.775879,397.667114 669.832825,394.570465 693.027100,392.551117 
	C699.634583,391.975800 706.202942,390.856995 712.850586,390.411285 
	C719.927612,389.936768 723.344788,394.245453 720.226013,400.714508 
	C716.543152,408.353699 712.546448,415.866913 708.259949,423.185272 
	C692.156128,450.679962 674.880798,477.356964 651.873352,499.754028 
	C645.752441,505.712555 638.753723,510.526337 630.229126,512.619568 
	C625.895447,513.683716 621.784302,513.575317 617.612549,511.570801 
	C605.576538,505.787476 592.916077,503.082245 579.455078,503.259186 
	C555.136780,503.578918 530.807922,503.595856 506.490326,503.253784 
	C495.175659,503.094604 484.745331,505.745911 474.691223,510.486847 
	C470.599609,512.416260 466.484467,514.148376 461.526184,514.710205 
z"/>
<path fill="#000000" opacity="1.000000" stroke="none" 
	d="
M638.565308,597.138794 
	C625.633667,598.376160 614.462341,595.110474 604.223877,587.860168 
	C590.959656,578.467285 577.666382,578.400513 564.202698,587.494446 
	C556.215759,592.889160 547.984680,597.090576 538.000549,597.400330 
	C527.660217,597.721252 518.734558,594.408997 510.519989,588.502563 
	C501.014618,581.668030 496.181610,581.606628 486.480377,588.117188 
	C467.478455,600.869507 448.743652,600.646301 430.295776,587.447754 
	C417.910339,578.586609 403.320831,578.464722 390.646729,587.116455 
	C370.081421,601.155090 352.733337,601.162231 332.369537,587.140442 
	C320.597473,579.034546 305.716705,578.823547 293.821228,586.594727 
	C293.263306,586.959290 292.713379,587.335999 292.155182,587.700073 
	C285.494934,592.044006 281.307159,592.531738 279.379578,589.189941 
	C276.676636,584.503906 279.209686,575.513672 283.902313,572.473999 
	C303.899109,559.520935 323.446533,559.857422 342.964996,573.752319 
	C354.683777,582.094666 368.339020,581.745544 380.325958,573.572510 
	C401.233154,559.317444 419.365204,559.309814 440.034088,573.547363 
	C451.970734,581.769836 465.437622,581.818420 477.354645,573.681946 
	C493.173248,562.881592 504.115906,562.955444 519.428894,573.965942 
	C529.952637,581.532715 542.362915,581.672546 553.400940,573.954285 
	C561.617310,568.208984 570.495911,564.071411 580.435913,563.053772 
	C592.028870,561.867004 602.493225,565.717102 611.885254,572.298523 
	C625.641296,581.937927 638.230347,582.278381 652.128906,572.982117 
	C675.153442,557.581787 695.032471,560.804871 717.212463,573.721313 
	C721.305542,576.104919 723.074402,585.062500 720.449646,589.016296 
	C718.088562,592.572998 714.838013,592.054749 711.647278,590.260132 
	C706.705200,587.480591 701.726257,584.805359 696.379272,582.858521 
	C684.264465,578.447693 672.784119,579.644592 662.095276,586.891968 
	C655.000122,591.702637 647.677917,595.873291 638.565308,597.138794 
z"/>
<path fill="#000000" opacity="1.000000" stroke="none" 
	d="
M487.703003,526.470154 
	C498.207611,522.697937 507.984375,523.839539 516.633789,529.930786 
	C529.325867,538.868958 541.667847,538.732605 554.862122,531.080200 
	C574.597229,519.634155 594.551819,520.238403 614.125305,531.703735 
	C626.903931,539.188965 639.326111,538.700806 651.033264,529.992126 
	C672.481323,514.037476 694.170410,516.546387 716.129822,528.398621 
	C721.149597,531.107910 723.264038,538.202759 720.745483,543.185242 
	C718.668335,547.294373 715.149719,546.826355 711.712463,545.241028 
	C705.065186,542.175110 698.581848,538.779663 691.326294,537.199097 
	C681.196167,534.992432 671.764465,536.457336 663.229675,542.365967 
	C655.625244,547.630493 647.778076,552.091309 638.392822,553.382324 
	C626.635498,554.999573 615.883728,552.155640 605.841919,546.319153 
	C591.333008,537.886230 576.849792,537.434692 562.301758,545.989502 
	C544.742065,556.315369 527.309143,556.610229 510.031464,545.443481 
	C502.390900,540.505249 494.917053,540.374817 487.098236,545.117065 
	C467.418945,557.052856 448.197693,556.561584 429.131378,543.250610 
	C417.299774,534.990540 401.963593,535.471924 390.216064,543.820068 
	C372.027313,556.745483 353.417389,557.406921 334.783966,545.306335 
	C319.679138,535.497314 304.728455,534.816040 289.236450,543.953613 
	C286.067719,545.822632 282.575500,548.024597 279.611786,543.700256 
	C276.634613,539.356445 278.940857,530.023926 283.536163,527.244812 
	C289.631073,523.558777 296.379547,521.617065 303.350342,520.831116 
	C317.271759,519.261536 330.176697,522.470154 341.759644,530.387756 
	C355.058197,539.478088 368.010040,538.990845 381.211548,530.015076 
	C399.938263,517.282654 420.421417,517.213135 439.108429,529.993591 
	C451.597687,538.535217 464.013947,539.130249 477.006134,531.579895 
	C480.309143,529.660339 483.582672,527.630066 487.703003,526.470154 
z"/>
<path fill="#000000" opacity="1.000000" stroke="none" 
	d="
M542.585510,405.763153 
	C528.761414,408.704163 515.018799,408.415100 501.496338,410.214172 
	C489.790619,411.771515 477.970612,412.721558 466.862854,417.200012 
	C464.860626,418.007202 462.565826,418.582733 461.024750,419.958282 
	C452.186646,427.846985 440.856964,428.768707 430.126068,431.376556 
	C425.812531,432.424835 421.470093,433.354279 417.512970,434.253265 
	C415.909180,432.612366 416.637787,431.502625 417.107880,430.517212 
	C427.939087,407.813538 444.731812,393.399323 470.799042,391.659760 
	C493.044098,390.175262 515.264404,388.302521 537.517395,386.962830 
	C549.230469,386.257660 559.178528,390.502930 567.842163,399.872162 
	C559.200317,402.819519 551.026367,403.944794 542.585510,405.763153 
z"/>
<path fill="#000000" opacity="1.000000" stroke="none" 
	d="
M523.159973,365.356964 
	C527.416565,356.774811 534.259949,352.395172 543.097839,350.516968 
	C554.331299,348.129730 565.605103,346.404846 577.092773,345.533173 
	C596.904846,344.029846 611.588745,352.088074 622.521240,368.048401 
	C626.815552,374.317688 631.170105,380.571320 634.143433,388.223755 
	C626.686157,390.506561 619.320801,390.524017 612.318970,392.217712 
	C606.051025,393.733948 601.756287,392.486633 597.134094,387.417206 
	C588.494751,377.941864 577.065002,373.467529 564.103394,373.242798 
	C551.934753,373.031830 539.799866,373.369781 527.705322,374.865723 
	C525.452942,375.144287 523.096680,375.705444 520.661316,374.513763 
	C519.812012,371.164307 522.073120,368.587402 523.159973,365.356964 
z"/>
</svg>