<svg version="1.1" id="Layer_1" xmlns="http://www.w3.org/2000/svg" xmlns:xlink="http://www.w3.org/1999/xlink" x="0px" y="0px"
	 width="100%" viewBox="208.294 145.554 637.798 637.798" enable-background="new 208.294 145.554 637.798 637.798" xml:space="preserve">
<path fill="#000000" opacity="1.000000" stroke="none" 
	d="
M258.025330,663.331360 
	C261.440125,649.858215 269.149017,639.739014 278.847321,630.634888 
	C305.083435,606.006409 331.122864,581.166870 357.105072,556.269897 
	C397.037872,518.005005 436.871674,479.636749 476.709839,441.273315 
	C482.466431,435.729858 488.135986,430.084076 493.609131,424.263062 
	C496.497223,421.191376 498.617981,420.725983 501.735779,424.096191 
	C508.860687,431.797913 516.246765,439.263977 523.686401,446.665253 
	C526.074951,449.041504 526.292969,450.640472 523.815369,453.212250 
	C514.921265,462.444214 506.267670,471.907898 497.524445,481.285217 
	C493.004333,486.133118 492.952362,487.206573 497.752319,491.913300 
	C507.756226,501.722931 506.053864,502.789642 515.951782,491.745117 
	C527.067139,479.342041 538.659058,467.366882 549.989929,455.155670 
	C554.782288,449.990967 554.739014,449.741547 549.839966,444.712952 
	C538.563538,433.138275 527.336121,421.514038 515.923584,410.074799 
	C513.028198,407.172638 512.999390,404.916931 515.727173,402.033264 
	C523.862610,393.432861 531.070312,384.047852 538.459412,374.816864 
	C543.890503,368.031921 546.907593,360.891876 544.878845,351.759369 
	C542.683289,341.875854 541.511414,331.784943 541.743774,321.547272 
	C542.269165,298.398651 548.557434,276.915985 559.979797,256.908661 
	C577.476624,226.261078 603.534668,206.018417 636.899475,195.332672 
	C654.508728,189.692963 672.741577,188.163681 691.167603,190.779541 
	C693.450745,191.103668 695.713745,191.830429 697.883911,192.643356 
	C706.011658,195.687943 707.916016,203.313034 701.993896,209.723694 
	C683.916504,229.292282 665.733948,248.763672 647.598022,268.278198 
	C645.784607,270.229462 643.846436,272.094330 642.256409,274.216675 
	C639.999390,277.229340 638.617432,280.573517 639.778076,284.489044 
	C643.703125,297.729675 647.614685,310.974274 651.518311,324.221222 
	C652.887634,328.868195 655.699463,331.880310 660.465210,333.415771 
	C673.600952,337.647797 686.697021,342.014435 699.717834,346.586823 
	C705.847656,348.739349 710.353210,346.710114 714.392395,342.278564 
	C730.550720,324.550781 746.742432,306.853424 762.902344,289.127106 
	C767.055176,284.571716 771.212219,280.016022 775.226074,275.339233 
	C778.034485,272.066925 781.348267,270.037537 785.702271,270.910065 
	C790.102905,271.791901 792.252991,275.068085 793.468140,279.173950 
	C800.963074,304.498260 799.652527,329.693268 790.804932,354.238190 
	C774.779541,398.695312 743.624390,427.452789 698.163879,440.478363 
	C679.246826,445.898560 659.989746,445.785950 640.733276,442.665344 
	C631.949402,441.241882 624.570984,442.946411 617.552063,448.763519 
	C595.683105,466.888153 576.115540,487.190918 557.640259,508.728760 
	C540.084167,529.195068 521.830444,549.074219 503.563385,568.916748 
	C477.286102,597.460388 450.800751,625.813904 424.249207,654.103027 
	C403.391754,676.325439 382.418579,698.442139 361.284363,720.401245 
	C328.358093,754.612549 271.991699,740.434021 258.555023,694.741455 
	C255.515686,684.405945 255.076630,674.131287 258.025330,663.331360 
M312.674927,700.977234 
	C315.667023,701.006836 318.672852,701.119812 321.562195,700.134216 
	C330.908295,696.946045 337.515625,685.445251 335.315247,676.226746 
	C332.634827,664.997009 323.012268,658.120117 311.659149,659.320557 
	C301.831360,660.359680 293.413574,669.808533 293.356628,679.864990 
	C293.292053,691.269470 300.694458,699.727539 312.674927,700.977234 
z"/>
<path fill="#000000" opacity="1.000000" stroke="none" 
	d="
M577.461243,599.530090 
	C567.995178,589.200073 558.741882,579.152466 549.504089,569.090576 
	C544.929626,564.107971 544.874878,561.220459 547.997070,555.180481 
	C553.206055,545.103455 560.970581,537.048523 568.432190,528.788391 
	C580.370911,515.572021 591.311890,501.439850 604.463806,489.329742 
	C610.842590,483.456177 614.514893,483.307495 620.809814,489.271881 
	C655.396912,522.042847 689.924744,554.876282 724.481262,587.679504 
	C740.309021,602.704163 756.033386,617.840698 772.022156,632.692322 
	C797.604858,656.455688 797.454163,697.761475 771.508362,721.162964 
	C746.994446,743.273010 712.651184,743.675110 689.686768,721.519409 
	C679.754150,711.936523 670.860291,701.276489 661.501465,691.099365 
	C634.326233,661.548218 607.153931,631.994263 579.984131,602.438049 
	C579.195374,601.580078 578.447388,600.684570 577.461243,599.530090 
M712.043518,671.803345 
	C709.581970,680.313721 711.693542,687.893372 717.953369,693.751953 
	C723.855896,699.276245 731.416870,700.283508 738.994141,697.721619 
	C748.575195,694.482239 753.979492,684.974731 752.653687,674.765686 
	C751.537170,666.167603 743.644165,658.303162 735.140198,657.315369 
	C724.614319,656.092712 716.142822,661.168640 712.043518,671.803345 
z"/>
<path fill="#000000" opacity="1.000000" stroke="none" 
	d="
M401.718079,310.244812 
	C429.421356,338.836395 456.855133,367.190460 484.356323,395.478912 
	C486.686981,397.876282 486.992859,399.483582 484.327698,401.993378 
	C476.693085,409.183075 469.194153,416.531525 461.936310,424.099915 
	C458.705933,427.468475 456.444214,427.197754 453.318298,424.061859 
	C435.687958,406.375214 417.933411,388.812317 400.205139,371.223450 
	C389.569092,360.671021 378.937500,350.113617 368.236481,339.627289 
	C363.302826,334.792572 356.428314,333.688934 350.447418,330.914032 
	C340.335663,326.222443 329.970459,322.069824 319.658722,317.819397 
	C314.231323,315.582275 310.197906,312.035217 306.940247,307.091034 
	C293.657654,286.931854 280.099182,266.954651 266.704803,246.868713 
	C261.848114,239.585709 262.207031,237.032471 268.434937,230.880661 
	C275.661957,223.741882 282.832520,216.545197 290.113495,209.461975 
	C295.695557,204.031525 297.529419,203.910614 304.031982,207.793884 
	C323.895355,219.656113 343.733429,231.561752 363.672241,243.295990 
	C369.317017,246.617996 373.413177,250.839005 376.192535,256.951233 
	C383.494934,273.010345 391.188446,288.892700 397.996796,305.175232 
	C398.800659,307.097717 400.093048,308.542511 401.718079,310.244812 
z"/>
</svg>