<svg xmlns="http://www.w3.org/2000/svg" viewBox="0 0 24 24" aria-hidden="true">
  <path fill="currentColor" d="M12.04 2.2c-5.42 0-9.82 4.34-9.82 9.7 0 1.7.45 3.36 1.3 4.82l-1.38 5.08 5.22-1.35a9.93 9.93 0 0 0 4.68 1.18c5.42 0 9.82-4.34 9.82-9.7s-4.4-9.73-9.82-9.73Zm0 17.78a8.25 8.25 0 0 1-4.2-1.15l-.3-.18-3.1.8.82-3.01-.2-.31a7.96 7.96 0 0 1-1.22-4.23c0-4.44 3.68-8.06 8.2-8.06 4.53 0 8.2 3.62 8.2 8.07 0 4.44-3.67 8.07-8.2 8.07Zm4.5-6.05c-.25-.12-1.46-.71-1.69-.79-.23-.08-.4-.12-.56.12-.17.24-.65.79-.8.95-.14.16-.29.18-.54.06-.25-.12-1.04-.38-1.98-1.2-.73-.65-1.23-1.45-1.37-1.69-.14-.24-.02-.37.11-.49.11-.11.25-.29.37-.43.12-.14.17-.24.25-.4.08-.16.04-.3-.02-.42-.06-.12-.56-1.34-.77-1.84-.2-.48-.41-.42-.56-.43h-.48c-.17 0-.43.06-.66.3-.23.24-.87.85-.87 2.06s.9 2.39 1.02 2.55c.12.16 1.76 2.65 4.27 3.72.6.26 1.06.41 1.43.52.6.19 1.14.16 1.57.1.48-.07 1.46-.59 1.67-1.16.21-.57.21-1.05.15-1.16-.06-.1-.23-.16-.48-.28Z"/>
</svg>
